<?xml version="1.0" encoding="UTF-8" standalone="no"?>
<!-- Created with Inkscape (http://www.inkscape.org/) -->

<svg
   xmlns:dc="http://purl.org/dc/elements/1.1/"
   xmlns:cc="http://creativecommons.org/ns#"
   xmlns:rdf="http://www.w3.org/1999/02/22-rdf-syntax-ns#"
   xmlns:svg="http://www.w3.org/2000/svg"
   xmlns="http://www.w3.org/2000/svg"
   xmlns:sodipodi="http://sodipodi.sourceforge.net/DTD/sodipodi-0.dtd"
   xmlns:inkscape="http://www.inkscape.org/namespaces/inkscape"
   width="1229.7799"
   height="331.62296"
   viewBox="0 0 325.37927 87.741905"
   version="1.1"
   id="svg8"
   inkscape:version="0.92.4 (5da689c313, 2019-01-14)"
   sodipodi:docname="libra.svg">
  <defs
     id="defs2" />
  <sodipodi:namedview
     id="base"
     pagecolor="#ffffff"
     bordercolor="#666666"
     borderopacity="1.0"
     inkscape:pageopacity="0.0"
     inkscape:pageshadow="2"
     inkscape:zoom="0.49497475"
     inkscape:cx="1053.7182"
     inkscape:cy="255.54062"
     inkscape:document-units="mm"
     inkscape:current-layer="layer1"
     showgrid="false"
     inkscape:window-width="1920"
     inkscape:window-height="1017"
     inkscape:window-x="-8"
     inkscape:window-y="176"
     inkscape:window-maximized="1"
     units="px" />
  <metadata
     id="metadata5">
    <rdf:RDF>
      <cc:Work
         rdf:about="">
        <dc:format>image/svg+xml</dc:format>
        <dc:type
           rdf:resource="http://purl.org/dc/dcmitype/StillImage" />
        <dc:title></dc:title>
      </cc:Work>
    </rdf:RDF>
  </metadata>
  <g
     inkscape:label="Layer 1"
     inkscape:groupmode="layer"
     id="layer1"
     transform="translate(72.247797,-31.903948)">
    <g
       id="g829"
       transform="matrix(0.26458333,0,0,0.26458333,-72.247797,31.904728)"
       style="fill:#42318c;fill-opacity:1">
      <path
         id="path815"
         d="m 314.82,292.65 a 192,192 0 0 0 23.31,-32.92 L 298.68,240.09 A 120.78,120.78 0 0 1 278,266 c -11,10.21 -22.7,16.16 -34.61,17.68 -23,2.94 -39.07,-4.17 -62.51,-19.21 -24.63,-15.8 -52.54,-33.71 -92.15,-28.65 -24,3.08 -46.06,15.66 -65.44,37.39 A 191.89,191.89 0 0 0 0,306.13 l 39.44,19.64 a 121.7,121.7 0 0 1 20.64,-25.93 c 10.88,-10.07 22.52,-16 34.62,-17.51 a 79.51,79.51 0 0 1 10,-0.66 c 18.14,0 32.71,7 52.52,19.71 23,14.77 51.66,33.15 92.17,28 24.48,-3.16 46.5,-15.51 65.43,-36.73 z m 0,-117.48 a 192,192 0 0 0 23.31,-32.92 L 298.68,122.61 A 121,121 0 0 1 278,148.53 c -11,10.21 -22.7,16.16 -34.61,17.68 -23,2.93 -39.07,-4.17 -62.51,-19.21 -24.63,-15.8 -52.54,-33.71 -92.15,-28.65 -24,3.08 -46.06,15.65 -65.44,37.39 A 191.5,191.5 0 0 0 0,188.65 l 39.44,19.64 A 122,122 0 0 1 60.08,182.35 C 71,172.29 82.6,166.4 94.7,164.85 a 79.51,79.51 0 0 1 10,-0.66 c 18.14,0 32.71,7 52.52,19.71 23,14.77 51.66,33.15 92.17,28 24.48,-3.16 46.5,-15.51 65.43,-36.73 z m 0,-117.48 A 192,192 0 0 0 338.13,24.77 L 298.68,5.13 A 121,121 0 0 1 278,31.05 c -11,10.21 -22.7,16.16 -34.61,17.68 -23,2.93 -39.07,-4.17 -62.51,-19.21 C 156.28,13.72 128.37,-4.19 88.76,0.87 64.72,4 42.7,16.52 23.32,38.26 A 191.5,191.5 0 0 0 0,71.17 L 39.44,90.81 A 122,122 0 0 1 60.08,64.87 C 71,54.81 82.6,48.92 94.7,47.37 a 79.51,79.51 0 0 1 10,-0.66 c 18.14,0 32.71,7 52.52,19.71 23,14.77 51.64,33.14 92.17,28 24.48,-3.16 46.5,-15.51 65.43,-36.73 z"
         style="color:#42318c;fill:#42318c;fill-opacity:1"
         inkscape:connector-curvature="0" />
      <path
         id="path817"
         d="M 452.56,5.45 V 326.61 H 407 V 5.45 Z m 48.09,92.44 v 228.72 h 45.6 V 97.89 Z M 929.5,150.7 c 18.77,-12.62 40.86,-16.24 63,-12.71 v -39.8 a 125.23,125.23 0 0 0 -15.42,-1 c -31.27,0 -56.07,9.56 -68,26.22 l -5.6,7.78 V 97.63 h -45.64 v 229 h 45.37 v -79.58 c 0,-14.57 -0.16,-26.82 0,-41.39 0.29,-24.04 8.39,-42.91 26.29,-54.96 z m 300.28,175.91 v -229 h -42.41 v 25.15 l -5.1,-4.39 c -19.87,-17.1 -43.94,-25.77 -71.54,-25.77 -20.55,0 -39.9,5 -56,14.58 -37,21.87 -59,61.09 -59,104.92 0,43.83 21.88,82.74 58.53,104.42 15.9,9.44 37.38,15.08 57.46,15.08 26.92,0 52,-9.14 70.49,-25.73 l 5.15,-4.61 v 25.33 z m -60.51,-57.25 A 73.75,73.75 0 0 1 1118,292.71 c -0.92,0 -1.82,0.05 -2.71,0.05 -45.5,0 -81.14,-35.42 -81.14,-80.64 0,-21.28 7.64,-41.26 21.52,-56.26 14.55,-15.72 34.84,-24.38 57.12,-24.38 1,0 2.1,0 3.16,0.05 a 75.59,75.59 0 0 1 52.75,23.78 78.06,78.06 0 0 1 21.52,54 v 7.44 a 76.41,76.41 0 0 1 -20.95,52.61 z m -455.89,62.26 c 20.55,0 39.9,-5 56,-14.58 37,-21.87 59,-61.09 59,-104.92 0,-43.83 -21.88,-82.74 -58.53,-104.42 -15.9,-9.44 -37.39,-15.08 -57.47,-15.08 -26.91,0 -51.94,9.14 -70.49,25.74 l -5.15,4.6 V 5.45 h -42.4 v 321.16 h 42.4 v -25.15 l 5.11,4.39 c 19.87,17.15 43.94,25.77 71.53,25.77 z M 633.94,215 v -7.44 a 76.46,76.46 0 0 1 20.9,-52.64 73.78,73.78 0 0 1 51.33,-23.35 c 0.91,0 1.81,-0.05 2.71,-0.05 45.5,0 81.14,35.42 81.14,80.64 0,21.28 -7.65,41.26 -21.53,56.26 -14.55,15.72 -34.83,24.38 -57.11,24.38 -1,0 -2.11,0 -3.16,-0.05 A 75.61,75.61 0 0 1 655.46,268.97 78.11,78.11 0 0 1 633.94,215 Z M 546.25,5.45 h -45.6 V 51 h 45.6 z"
         style="color:#42318c;fill:#42318c;fill-opacity:1"
         inkscape:connector-curvature="0" />
    </g>
  </g>
</svg>
