<svg xmlns:dc="http://purl.org/dc/elements/1.1/" xmlns:cc="http://creativecommons.org/ns#" xmlns:rdf="http://www.w3.org/1999/02/22-rdf-syntax-ns#" xmlns:svg="http://www.w3.org/2000/svg" xmlns="http://www.w3.org/2000/svg" xmlns:sodipodi="http://sodipodi.sourceforge.net/DTD/sodipodi-0.dtd" xmlns:inkscape="http://www.inkscape.org/namespaces/inkscape" viewBox="0 0 32 40.00000125" version="1.1" x="0px" y="0px"><g transform="translate(0,-1020.3622)"><path d="m 18.6751,1037.182 -0.1273,-0.1276 c -0.6331,-0.6341 -1.6596,-0.6341 -2.2926,0 l -0.099,0.1 c -0.2291,0.2294 -0.4151,0.4983 -0.5491,0.7937 l -0.1267,0.279 c -0.1982,0.4368 -0.5477,0.7869 -0.9839,0.9854 l -0.2773,0.1263 c -0.2957,0.1346 -0.5648,0.3216 -0.7944,0.5519 l -0.099,0.1 c -0.632,0.6342 -0.6315,1.6614 0,2.295 l 0.127,0.1271 c 0.6331,0.634 1.6595,0.634 2.2926,-10e-5 l 0.099,-0.1 c 0.2291,-0.2294 0.4151,-0.4982 0.5492,-0.7936 l 0.1266,-0.2791 c 0.1983,-0.4368 0.5478,-0.7869 0.9839,-0.9854 l 0.2786,-0.1268 c 0.2949,-0.1343 0.5634,-0.3206 0.7925,-0.55 l 0.099,-0.1 c 0.657,-0.7277 0.6056,-1.6277 9e-4,-2.2958 z" style="" fill="#000000" fill-rule="evenodd" stroke="none"/><path style="" d="m 8.5,1029.6141 c 0.1,0 -0.5062,0.097 -0.9316,0.2168 -0.1692,0.047 -0.1855,0.055 -0.3184,0.096 l 0,17.4765 a 2.8346454,2.8346454 0 0 0 2.834,2.834 l 11.832,0 a 2.8346454,2.8346454 0 0 0 2.834,-2.834 l 0,-17.4765 c -0.1329,-0.04 -0.1492,-0.048 -0.3184,-0.096 -0.4254,-0.1196 -1.0316,-0.2168 -0.9316,-0.2168 -0.1243,0 -0.3865,0.1175 -0.7871,0.3671 -0.4006,0.2497 -0.9397,0.6309 -1.7129,0.6309 -0.7732,0 -1.3123,-0.3812 -1.7129,-0.6309 -0.4006,-0.2496 -0.6628,-0.3671 -0.7871,-0.3671 -0.1243,0 -0.3865,0.1175 -0.7871,0.3671 -0.4006,0.2497 -0.9397,0.6309 -1.7129,0.6309 -0.7732,0 -1.3123,-0.3812 -1.7129,-0.6309 -0.4006,-0.2496 -0.6628,-0.3671 -0.7871,-0.3671 -0.1243,0 -0.3865,0.1175 -0.7871,0.3671 -0.4006,0.2497 -0.9397,0.6309 -1.7129,0.6309 -0.7732,0 -1.3123,-0.3812 -1.7129,-0.6309 -0.4006,-0.2496 -0.6628,-0.3671 -0.7871,-0.3671 z m 2.5,5.3125 10,0 c 0.554,0 1,0.446 1,1 l 0,8 c 0,0.554 -0.446,1 -1,1 l -10,0 c -0.554,0 -1,-0.446 -1,-1 l 0,-8 c 0,-0.554 0.446,-1 1,-1 z" fill="#000000" fill-rule="evenodd" stroke="none"/><path d="m 7.5,1022.4871 17,0 c 0.554,0 1,0.446 1,1 l 0,1 c 0,0.554 -0.446,1 -1,1 l -17,0 c -0.554,0 -1,-0.446 -1,-1 l 0,-1 c 0,-0.554 0.446,-1 1,-1 z" style="opacity:1;fill:#000000;fill-opacity:1;stroke:none;stroke-width:0.99999988;stroke-linecap:round;stroke-linejoin:round;stroke-miterlimit:4;stroke-dasharray:none;stroke-dashoffset:0;stroke-opacity:1"/><path d="m 7.5,1026.2371 -1,3 c 0,0 1.5512,-0.4985 2,-0.4985 0.8975,0 1.6025,0.9985 2.5,0.9985 0.8975,0 1.6025,-0.9985 2.5,-0.9985 0.8975,0 1.6025,0.9985 2.5,0.9985 0.8975,0 1.6025,-0.9985 2.5,-0.9985 0.8975,0 1.6025,0.9985 2.5,0.9985 0.8975,0 1.6025,-0.9985 2.5,-0.9985 0.4488,0 2,0.4985 2,0.4985 l -1,-3" style="" fill="#000000" fill-rule="evenodd" stroke="none"/></g><text x="0" y="47.000001" fill="#000000" font-size="5px" font-weight="bold" font-family="'Helvetica Neue', Helvetica, Arial-Unicode, Arial, Sans-serif">Created by P Thanga Vignesh</text><text x="0" y="52.000001" fill="#000000" font-size="5px" font-weight="bold" font-family="'Helvetica Neue', Helvetica, Arial-Unicode, Arial, Sans-serif">from the Noun Project</text></svg>