<svg xmlns="http://www.w3.org/2000/svg" xmlns:xlink="http://www.w3.org/1999/xlink" version="1.1" x="0px" y="0px" viewBox="0 0 100 125" style="enable-background:new 0 0 100 100;" xml:space="preserve"><path d="M49.047,12.435c-0.047,0.155-0.078,0.31-0.078,0.481s0.031,0.31,0.078,0.45c0.047,0.14,0.125,0.264,0.234,0.388  c0.109,0.109,0.266,0.217,0.438,0.326c0.187,0.093,0.422,0.202,0.703,0.31c0.437,0.186,0.844,0.357,1.203,0.543  c0.359,0.186,0.672,0.403,0.938,0.652c0.266,0.248,0.469,0.527,0.609,0.853c0.141,0.31,0.219,0.698,0.219,1.133  c0,0.403-0.062,0.76-0.203,1.086c-0.125,0.31-0.312,0.59-0.547,0.822c-0.234,0.233-0.531,0.419-0.859,0.559  c-0.344,0.14-0.719,0.233-1.125,0.279v1.35h-1.094v-1.35c-0.375-0.047-0.75-0.124-1.094-0.264c-0.359-0.14-0.672-0.341-0.953-0.59  c-0.266-0.264-0.5-0.59-0.656-0.978c-0.172-0.388-0.25-0.853-0.25-1.396h1.984c0,0.326,0.047,0.59,0.125,0.807  c0.094,0.217,0.203,0.388,0.344,0.512c0.141,0.14,0.297,0.217,0.484,0.279c0.187,0.046,0.359,0.078,0.547,0.078  c0.219,0,0.406-0.031,0.578-0.093c0.156-0.062,0.297-0.14,0.406-0.248c0.109-0.093,0.187-0.217,0.25-0.372  c0.047-0.14,0.078-0.295,0.078-0.465c0-0.186-0.031-0.357-0.078-0.497c-0.047-0.155-0.125-0.279-0.25-0.403  c-0.109-0.109-0.266-0.217-0.438-0.326c-0.187-0.093-0.406-0.202-0.672-0.295c-0.437-0.171-0.844-0.341-1.219-0.528  c-0.359-0.186-0.672-0.388-0.938-0.636c-0.266-0.233-0.469-0.528-0.609-0.838c-0.141-0.326-0.219-0.714-0.219-1.164  c0-0.388,0.062-0.729,0.203-1.055c0.125-0.31,0.313-0.59,0.547-0.822c0.234-0.248,0.516-0.434,0.844-0.59  c0.344-0.14,0.719-0.233,1.125-0.279V8.695h1.094v1.489c0.391,0.047,0.75,0.155,1.078,0.326c0.313,0.171,0.594,0.388,0.812,0.652  c0.219,0.279,0.391,0.59,0.516,0.962c0.125,0.357,0.187,0.776,0.187,1.226h-1.984c0-0.543-0.109-0.962-0.344-1.226  c-0.219-0.264-0.531-0.403-0.906-0.403c-0.203,0-0.391,0.031-0.531,0.093c-0.156,0.062-0.281,0.14-0.375,0.248  S49.094,12.295,49.047,12.435z"/><path d="M50,0.999L8,27.19h84L50,0.999z M50,23.715c-4.75,0-8.594-3.817-8.594-8.534S45.25,6.647,50,6.647s8.594,3.817,8.594,8.534  S54.75,23.715,50,23.715z"/><path d="M93.75,28.661H6.25v4.827h1.66c-0.057,0.197-0.098,0.402-0.098,0.617c0,1.24,1.022,2.255,2.271,2.255h1.636v39.081h-1.636  c-1.249,0-2.271,1.015-2.271,2.255c0,0.247,0.05,0.48,0.125,0.703H7.813v4.655h84.375v-4.655h-0.125  c0.075-0.223,0.125-0.456,0.125-0.703c0-1.24-1.022-2.255-2.271-2.255h-1.636V36.36h1.636c1.249,0,2.271-1.015,2.271-2.255  c0-0.215-0.041-0.419-0.098-0.617h1.66C93.75,33.488,93.75,28.661,93.75,28.661z M21.167,75.441h-1.636V36.36h1.636  c1.249,0,2.271-1.015,2.271-2.255c0-0.215-0.041-0.419-0.098-0.617h18.946c-0.057,0.197-0.098,0.402-0.098,0.617  c0,1.24,1.022,2.255,2.271,2.255h1.636v39.081h-1.636c-1.249,0-2.271,1.015-2.271,2.255c0,0.247,0.05,0.48,0.125,0.703h-19  c0.075-0.223,0.125-0.456,0.125-0.703C23.438,76.456,22.416,75.441,21.167,75.441z M78.833,36.36h1.636v39.081h-1.636  c-1.249,0-2.271,1.015-2.271,2.255c0,0.247,0.05,0.48,0.125,0.703h-19c0.075-0.223,0.125-0.456,0.125-0.703  c0-1.24-1.022-2.255-2.271-2.255h-1.636V36.36h1.636c1.249,0,2.271-1.015,2.271-2.255c0-0.215-0.041-0.419-0.098-0.617H76.66  c-0.057,0.197-0.098,0.402-0.098,0.617C76.563,35.345,77.584,36.36,78.833,36.36z"/><rect x="4.688" y="85.984" width="90.625" height="5"/><rect y="93.484" width="100" height="5.517"/><g><path d="M53.172,16.438c0.141,0.31,0.219,0.698,0.219,1.133c0,0.403-0.062,0.76-0.203,1.086c-0.125,0.31-0.312,0.59-0.547,0.822   c-0.234,0.233-0.531,0.419-0.859,0.559c-0.344,0.14-0.719,0.233-1.125,0.279v1.35h-1.094v-1.35   c-0.375-0.047-0.75-0.124-1.094-0.264c-0.359-0.14-0.672-0.341-0.953-0.59c-0.266-0.264-0.5-0.59-0.656-0.978   c-0.172-0.388-0.25-0.853-0.25-1.396h1.984c0,0.326,0.047,0.59,0.125,0.807c0.094,0.217,0.203,0.388,0.344,0.512   c0.141,0.14,0.297,0.217,0.484,0.279c0.187,0.046,0.359,0.078,0.547,0.078c0.219,0,0.406-0.031,0.578-0.093   c0.156-0.062,0.297-0.14,0.406-0.248c0.109-0.093,0.187-0.217,0.25-0.372c0.047-0.14,0.078-0.295,0.078-0.465   c0-0.186-0.031-0.357-0.078-0.497c-0.047-0.155-0.125-0.279-0.25-0.403c-0.109-0.109-0.266-0.217-0.438-0.326   c-0.187-0.093-0.406-0.202-0.672-0.295c-0.437-0.171-0.844-0.341-1.219-0.528c-0.359-0.186-0.672-0.388-0.938-0.636   c-0.266-0.233-0.469-0.528-0.609-0.838c-0.141-0.326-0.219-0.714-0.219-1.164c0-0.388,0.062-0.729,0.203-1.055   c0.125-0.31,0.313-0.59,0.547-0.822c0.234-0.248,0.516-0.434,0.844-0.59c0.344-0.14,0.719-0.233,1.125-0.279V8.695h1.094v1.489   c0.391,0.047,0.75,0.155,1.078,0.326c0.313,0.171,0.594,0.388,0.812,0.652c0.219,0.279,0.391,0.59,0.516,0.962   c0.125,0.357,0.187,0.776,0.187,1.226h-1.984c0-0.543-0.109-0.962-0.344-1.226c-0.219-0.264-0.531-0.403-0.906-0.403   c-0.203,0-0.391,0.031-0.531,0.093c-0.156,0.062-0.281,0.14-0.375,0.248s-0.156,0.233-0.203,0.372   c-0.047,0.155-0.078,0.31-0.078,0.481s0.031,0.31,0.078,0.45c0.047,0.14,0.125,0.264,0.234,0.388   c0.109,0.109,0.266,0.217,0.438,0.326c0.187,0.093,0.422,0.202,0.703,0.31c0.437,0.186,0.844,0.357,1.203,0.543   c0.359,0.186,0.672,0.403,0.938,0.652C52.828,15.833,53.031,16.112,53.172,16.438z"/><g><path d="M52.563,15.584c-0.266-0.248-0.578-0.466-0.938-0.652c-0.359-0.186-0.766-0.357-1.203-0.543    c-0.281-0.109-0.516-0.217-0.703-0.31c-0.172-0.109-0.328-0.217-0.438-0.326c-0.109-0.124-0.187-0.248-0.234-0.388    s-0.078-0.279-0.078-0.45c0-0.171,0.031-0.326,0.078-0.481c0.047-0.14,0.109-0.264,0.203-0.372s0.219-0.186,0.375-0.248    c0.141-0.062,0.328-0.093,0.531-0.093c0.375,0,0.688,0.14,0.906,0.403c0.234,0.264,0.344,0.683,0.344,1.226h1.984    c0-0.45-0.062-0.869-0.187-1.226c-0.125-0.372-0.297-0.683-0.516-0.962c-0.219-0.264-0.5-0.481-0.812-0.652    c-0.328-0.171-0.688-0.279-1.078-0.326V8.695h-1.094v1.459c-0.406,0.046-0.781,0.14-1.125,0.279    c-0.328,0.155-0.609,0.341-0.844,0.59c-0.234,0.233-0.422,0.512-0.547,0.822c-0.141,0.326-0.203,0.667-0.203,1.055    c0,0.45,0.078,0.838,0.219,1.164c0.141,0.31,0.344,0.605,0.609,0.838c0.266,0.248,0.578,0.45,0.938,0.636    c0.375,0.186,0.781,0.357,1.219,0.528c0.266,0.093,0.484,0.202,0.672,0.295c0.172,0.109,0.328,0.217,0.438,0.326    c0.125,0.124,0.203,0.248,0.25,0.403c0.047,0.14,0.078,0.31,0.078,0.497c0,0.171-0.031,0.326-0.078,0.465    c-0.062,0.155-0.141,0.279-0.25,0.372c-0.109,0.109-0.25,0.186-0.406,0.248c-0.172,0.062-0.359,0.093-0.578,0.093    c-0.187,0-0.359-0.031-0.547-0.078c-0.187-0.062-0.344-0.14-0.484-0.279c-0.141-0.124-0.25-0.295-0.344-0.512    c-0.078-0.217-0.125-0.481-0.125-0.807h-1.984c0,0.543,0.078,1.009,0.25,1.396c0.156,0.388,0.391,0.714,0.656,0.978    c0.281,0.248,0.594,0.45,0.953,0.59c0.344,0.14,0.719,0.217,1.094,0.264v1.35h1.094v-1.35c0.406-0.047,0.781-0.14,1.125-0.279    c0.328-0.14,0.625-0.326,0.859-0.559s0.422-0.512,0.547-0.822c0.141-0.326,0.203-0.683,0.203-1.086    c0-0.434-0.078-0.822-0.219-1.133C53.031,16.112,52.828,15.833,52.563,15.584z"/></g></g><text x="0" y="115" fill="#000000" font-size="5px" font-weight="bold" font-family="'Helvetica Neue', Helvetica, Arial-Unicode, Arial, Sans-serif">Created by akash k</text><text x="0" y="120" fill="#000000" font-size="5px" font-weight="bold" font-family="'Helvetica Neue', Helvetica, Arial-Unicode, Arial, Sans-serif">from the Noun Project</text></svg>