<svg xmlns:dc="http://purl.org/dc/elements/1.1/" xmlns:cc="http://creativecommons.org/ns#" xmlns:rdf="http://www.w3.org/1999/02/22-rdf-syntax-ns#" xmlns:svg="http://www.w3.org/2000/svg" xmlns="http://www.w3.org/2000/svg" xmlns:sodipodi="http://sodipodi.sourceforge.net/DTD/sodipodi-0.dtd" xmlns:inkscape="http://www.inkscape.org/namespaces/inkscape" version="1.1" x="0px" y="0px" viewBox="0 0 100 125"><g transform="translate(0,-952.36218)"><path style="text-indent:0;text-transform:none;direction:ltr;block-progression:tb;baseline-shift:baseline;color:#000000;enable-background:accumulate;" d="m 60.975233,958.36308 c -4.674614,-0.0551 -9.245339,2.41412 -11.69224,6.73357 l -1.379622,2.45171 c -8.94026,15.94052 -17.943803,32.01384 -26.902594,47.99824 -0.346677,0.6522 -0.478346,1.0506 -0.482882,1.623 l -0.517393,23.0322 c -0.01765,0.7998 0.4365,1.5926 1.134921,1.9811 0.698528,0.3885 1.610752,0.3557 2.279693,-0.082 l 13.865172,-8.8745 c 0.97526,-0.6238 1.295646,-2.0797 0.67252,-3.056 -0.62309,-0.9764 -2.077157,-1.2972 -3.052417,-0.6734 l -10.38157,6.6645 0.34487,-15.4699 c 5.327043,3.0319 10.521672,5.8982 15.865688,8.909 1.00311,0.5661 2.42922,0.1722 3.000614,-0.8287 9.054602,-16.0864 18.09907,-32.30279 27.14407,-48.34358 l 1.379658,-2.45171 c 3.52024,-6.29874 1.259645,-14.39053 -5.035642,-17.92164 -1.975961,-1.11262 -4.119661,-1.66699 -6.242846,-1.69203 z m -0.06846,4.41999 c 1.412114,0.0186 2.816433,0.39418 4.138902,1.13953 4.181244,2.34304 5.689346,7.72066 3.345519,11.91323 l -0.413858,0.72515 c -5.103177,-2.88723 -10.132512,-5.72813 -15.24483,-8.59824 l 0.379311,-0.69063 c 1.639771,-2.89456 4.688326,-4.52986 7.794956,-4.48904 z m -10.34713,9.01262 5.759859,3.24592 -24.867709,44.26889 -5.72531,-3.2114 z m 9.58826,5.38685 5.691012,3.2114 -24.867744,44.26886 -5.656464,-3.1768 z" fill="#000000" fill-opacity="1" fill-rule="evenodd" stroke="none" marker="none" visibility="visible" display="inline" overflow="visible"/><path style="text-indent:0;text-transform:none;direction:ltr;block-progression:tb;baseline-shift:baseline;color:#000000;enable-background:accumulate;" d="m 65.00213,1032.0912 c -2.33922,-0.016 -4.311744,0.5592 -5.911299,1.5135 -2.55926,1.527 -4.127634,3.7169 -5.60824,5.3482 -1.480641,1.6312 -2.674984,2.6649 -4.53274,2.9267 -1.857862,0.2617 -4.819571,-0.2936 -9.630248,-3.0711 -0.500952,-0.2948 -1.120641,-0.3801 -1.682504,-0.2315 -0.561826,0.1486 -1.058669,0.5292 -1.34883,1.0332 -0.290162,0.504 -0.370063,1.1252 -0.216851,1.6864 0.153213,0.5612 0.537556,1.0554 1.043504,1.3416 5.259508,3.0367 9.166004,4.0818 12.449587,3.6192 3.283618,-0.4626 5.503818,-2.478 7.185968,-4.3313 1.68222,-1.8534 3.024921,-3.5837 4.600027,-4.5235 1.573264,-0.9386 3.41465,-1.395 7.019788,-0.3548 3.437255,1.0796 6.953598,2.2015 9.779279,1.7387 0.57685,-0.094 1.110685,-0.4289 1.447689,-0.907 0.336968,-0.4782 0.472748,-1.0938 0.36822,-1.6696 -0.104527,-0.5757 -0.448015,-1.1042 -0.931535,-1.433 -0.483484,-0.3288 -1.100764,-0.4538 -1.673858,-0.3389 -1.866792,0.3398 -3.531295,-0.3843 -7.740815,-1.6285 -1.625244,-0.485 -3.201094,-0.7003 -4.617142,-0.7183 z" fill="#000000" fill-opacity="1" fill-rule="evenodd" stroke="none" marker="none" visibility="visible" display="inline" overflow="visible"/></g><text x="0" y="115" fill="#000000" font-size="5px" font-weight="bold" font-family="'Helvetica Neue', Helvetica, Arial-Unicode, Arial, Sans-serif">Created by royyanandrian</text><text x="0" y="120" fill="#000000" font-size="5px" font-weight="bold" font-family="'Helvetica Neue', Helvetica, Arial-Unicode, Arial, Sans-serif">from the Noun Project</text></svg>