<svg xmlns="http://www.w3.org/2000/svg" viewBox="0 0 64 80" x="0px" y="0px"><title>a</title><g data-name="21 Sinopsis Movie"><path d="M62,52H54V6a6.006,6.006,0,0,0-6-6H6A6.006,6.006,0,0,0,0,6v4a2,2,0,0,0,2,2H12V58a6.006,6.006,0,0,0,6,6H58a6.006,6.006,0,0,0,6-6V54A2,2,0,0,0,62,52ZM4,8V6A2,2,0,0,1,6,4h4a2,2,0,0,1,2,2V8ZM16,58V6a5.956,5.956,0,0,0-.08-.931c-.008-.052-.014-.1-.024-.158a5.82,5.82,0,0,0-.221-.842c-.007-.022-.01-.047-.018-.069H48a2,2,0,0,1,2,2V52H30a2,2,0,0,0-2,2v4a2,2,0,0,1-2,2H18A2,2,0,0,1,16,58Zm44,0a2,2,0,0,1-2,2H31.657c.008-.022.011-.047.018-.069a5.82,5.82,0,0,0,.221-.842c.01-.053.016-.106.024-.158A5.956,5.956,0,0,0,32,58V56H60Z"/><path d="M27.015,23.74a2,2,0,0,0,2.014-.025l10-6a2,2,0,0,0,0-3.43l-10-6A2,2,0,0,0,26,10V22A2,2,0,0,0,27.015,23.74ZM30,13.532,34.113,16,30,18.468Z"/><path d="M28,32H38a2,2,0,0,0,0-4H28a2,2,0,0,0,0,4Z"/><path d="M22,40H44a2,2,0,0,0,0-4H22a2,2,0,0,0,0,4Z"/><path d="M46,44a2,2,0,0,0-2-2H22a2,2,0,0,0,0,4H44A2,2,0,0,0,46,44Z"/></g><text x="0" y="79" fill="#000000" font-size="5px" font-weight="bold" font-family="'Helvetica Neue', Helvetica, Arial-Unicode, Arial, Sans-serif">Created by Berkah Icon</text><text x="0" y="84" fill="#000000" font-size="5px" font-weight="bold" font-family="'Helvetica Neue', Helvetica, Arial-Unicode, Arial, Sans-serif">from the Noun Project</text></svg>