<svg xmlns="http://www.w3.org/2000/svg" xmlns:xlink="http://www.w3.org/1999/xlink" version="1.1" x="0px" y="0px" viewBox="0 0 100 125" enable-background="new 0 0 100 100" xml:space="preserve"><polygon fill="#000000" points="41.854,7.299 28.411,15.037 28.629,15.176 42.047,7.409 "/><polygon fill="#000000" points="41.927,24.101 28.921,16.615 28.921,35.876 41.927,28.349 "/><polygon fill="#000000" points="28.921,76.28 29.458,75.97 29.458,75.092 28.921,74.781 "/><polygon fill="#000000" points="41.927,65.667 41.927,64.044 28.921,56.559 28.921,73.152 "/><polygon fill="#000000" points="41.927,47.467 41.927,44.969 28.921,37.483 28.921,54.953 "/><polygon fill="#000000" points="28.133,76.168 28.321,76.277 28.321,74.262 28.321,73.671 28.321,56.04 28.321,55.472   28.321,36.965 28.321,36.396 28.321,16.097 28.321,15.691 28.133,15.571 "/><polygon fill="#000000" points="30.058,75.97 56.78,91.416 56.78,90.864 30.058,75.438 "/><polygon fill="#000000" points="42.526,28.348 56.78,36.577 56.78,32.677 42.526,24.447 "/><polygon fill="#000000" points="57.38,32.503 57.38,37.097 57.38,52.803 57.38,53.371 57.38,56.215 57.38,71.878 57.38,72.49   57.38,74.415 57.38,90.121 57.38,90.69 57.38,91.937 57.38,93.067 57.611,93.189 57.611,32.553 57.38,32.431 "/><path fill="#000000" d="M70.99,24.127c-0.002,0.031-0.005,0.057-0.018,0.086c-0.005,0.013,0.002,0.027-0.005,0.04  c-0.027,0.047-0.065,0.083-0.109,0.108l-0.001,0.001l-0.001,0.001c-0.001,0-0.001,0-0.002,0l-13.152,7.559l0.202,0.106L71.289,24.3  L70.99,24.127z"/><polygon fill="#000000" points="58.211,93.167 71.59,85.441 71.59,24.819 58.211,32.545 "/><polygon fill="#000000" points="42.227,7.999 29.221,15.527 57.08,31.588 70.107,24.103 "/><polygon fill="#000000" points="29.222,55.472 56.78,71.359 56.78,56.389 42.226,47.986 "/><polygon fill="#000000" points="42.526,65.666 56.78,73.896 56.78,72.663 42.526,64.393 "/><polygon fill="#000000" points="42.526,47.466 56.78,55.695 56.78,53.545 42.526,45.315 "/><polygon fill="#000000" points="29.221,36.396 56.78,52.284 56.78,37.271 42.227,28.868 "/><polygon fill="#000000" points="29.222,73.671 56.78,89.602 56.78,74.589 42.226,66.186 "/><text x="0" y="115" fill="#000000" font-size="5px" font-weight="bold" font-family="'Helvetica Neue', Helvetica, Arial-Unicode, Arial, Sans-serif">Created by Lluisa Iborra</text><text x="0" y="120" fill="#000000" font-size="5px" font-weight="bold" font-family="'Helvetica Neue', Helvetica, Arial-Unicode, Arial, Sans-serif">from the Noun Project</text></svg>