<svg xmlns="http://www.w3.org/2000/svg" xmlns:xlink="http://www.w3.org/1999/xlink" version="1.1" x="0px" y="0px" viewBox="0 0 234.553 296.47875" style="enable-background:new 0 0 234.553 237.183;" xml:space="preserve"><g><ellipse transform="matrix(0.2268 -0.9739 0.9739 0.2268 113.7112 188.2297)" cx="175.403" cy="22.499" rx="22.495" ry="22.495"/><path d="M222.481,47.272h-94.157c-6.666,0-12.071,5.404-12.071,12.07v5.277c-0.048-0.002-0.093-0.014-0.141-0.014H91.496V40.634   c0-5.523-4.477-10-10-10H10c-5.522,0-10,4.477-10,10v185.49c0,5.522,4.478,10,10,10h71.496c5.523,0,10-4.478,10-10V75.272h24.616   c0.048,0,0.093-0.013,0.141-0.014V121.7c0,6.668,5.405,12.072,12.071,12.072h20.032v91.047c0,6.83,5.537,12.363,12.363,12.363   c6.828,0,12.365-5.533,12.365-12.363v-90.271h4.635v90.271c0,6.83,5.537,12.363,12.363,12.363c6.828,0,12.365-5.533,12.365-12.363   v-91.047h20.033c6.666,0,12.071-5.404,12.071-12.072V59.343C234.553,52.677,229.147,47.272,222.481,47.272z M81.248,105.272   c0,5.522-4.477,10-10,10h-51c-5.521,0-10-4.478-10-10v-42c0-5.523,4.479-10,10-10h51c5.523,0,10,4.477,10,10v1.333v10.667V105.272z    M194.112,91.47c-0.361,1.104-0.78,2.148-1.239,3.096c-0.168,0.351-0.389,0.745-0.635,1.151c-1.025,1.697-2.496,3.618-2.496,3.618   l-1.081,1.104c0,0-1.178,1.025-1.813,1.469c-2.289,1.583-4.884,2.557-7.932,2.978l-0.847,0.117l-0.29,0.04v-1.149v-7.791v-0.921   l0.917-0.074c5.37-0.444,10.043-2.048,13.888-4.767l2.471-1.747L194.112,91.47z M173.028,66.733v9.486v1.083l-1.078-0.085   l-0.595-0.051c-2.487-0.206-8.808-0.875-13.753-2.615c-2.305-0.798-4.222-1.814-5.409-2.874c-1.264-1.157-1.769-2.133-1.797-3.475   l0.002,0.007c-0.002-0.081,0.002-0.15,0.005-0.205l0.03-0.481l0.395-0.274c0.317-0.223,0.599-0.405,0.823-0.547   c0.246-0.154,0.429-0.26,0.595-0.351l0.074-0.04l0.018-0.008c0.069-0.035,0.13-0.08,0.193-0.122l0.152-0.104l0.129-0.044   c0.636-0.218,1.324-0.392,2.032-0.512c1.743-0.32,3.998-0.49,6.523-0.49h0.053c3.498,0,7.027,0.301,9.369,0.556   c0.49,0.053,0.937,0.102,1.359,0.152l0.88,0.107V66.733z M155.354,77.976c3.016,1.17,6.584,2.022,11.23,2.684   c1.791,0.249,3.648,0.443,5.516,0.58l0.928,0.067v0.931v7.822v1.106l-1.1-0.109c-7.23-0.724-12.542-3.643-16.245-8.937   c-0.579-0.847-1.115-1.782-1.593-2.777l-1.094-2.278L155.354,77.976z M156.705,91.48l-0.954-2.884l2.481,1.753   c3.836,2.712,8.507,4.313,13.879,4.756l0.917,0.073v0.922v7.793v1.149l-0.294-0.041l-0.843-0.116   c-3.057-0.423-5.651-1.396-7.937-2.98c-2.185-1.513-3.99-3.593-5.412-6.185C157.835,94.431,157.216,93.025,156.705,91.48z    M162.012,105.407c2.863,1.915,6.27,3.1,10.126,3.523l0.891,0.096v0.896v4.107v0.522l-0.429,0.298   c-2.262,1.573-4.337,2.441-5.943,2.441c-1.328-0.048-2.119-0.45-3.141-1.612c-1.473-1.715-2.423-5.086-2.821-7.662   c-0.092-0.562-0.166-1.115-0.231-1.662l-0.257-2.156L162.012,105.407z M177.78,114.032v-4.109v-0.895l0.891-0.098   c3.856-0.426,7.261-1.61,10.121-3.525l1.804-1.207l-0.255,2.156c-0.202,1.717-0.492,3.262-0.858,4.584   c-0.531,1.982-1.328,3.708-2.204,4.752c-1.016,1.15-1.806,1.555-3.231,1.599c-1.508,0-3.582-0.865-5.839-2.436l-0.429-0.299   V114.032z M194.507,82.981c-3.693,4.761-8.804,7.403-15.629,8.08l-1.098,0.109v-1.104v-7.829v-0.931l0.928-0.067   c2.627-0.191,6.604-0.604,10.622-1.475c2.338-0.514,4.34-1.096,6.122-1.782l2.349-0.904l-1.088,2.269   C196.084,80.662,195.343,81.882,194.507,82.981z M197.151,72.743c-4.064,2.547-11.348,3.673-13.479,3.956   c-1.54,0.214-3.161,0.386-4.814,0.517l-1.078,0.082v-1.08V66.73v-0.887l0.88-0.106c0.421-0.051,0.867-0.101,1.357-0.152   c2.353-0.253,5.886-0.554,9.365-0.554h0.146c1.968,0,5.644,0.118,8.156,0.897c0.079,0.023,0.15,0.048,0.306,0.104l0.2,0.087   l0.12,0.081c0.05,0.034,0.098,0.071,0.2,0.122c0.416,0.227,0.938,0.555,1.468,0.926l0.405,0.283l0.022,0.492l0.002,0.164   C200.397,69.927,199.426,71.286,197.151,72.743z M128.323,126.529c-2.662,0-4.828-2.167-4.828-4.828V59.345   c0-2.665,2.166-4.832,4.828-4.832h21.105h23.6v6.18v1.119l-1.112-0.127c-2.605-0.296-6.542-0.648-10.494-0.65   c-2.554,0.006-6.313,0.123-9.466,1.066c-1.548,0.475-2.659,1.048-3.6,1.844c-0.036,0.03-0.077,0.056-0.112,0.087   c-0.166,0.14-0.318,0.301-0.469,0.468l-0.063,0.072l-0.076,0.057c-1.939,1.478-4.86,4.098-7.763,8.193   c-4.705,6.629-10.313,18.611-10.302,38.041c0,4.951,0.38,10.212,1.095,15.667H128.323z M134.708,126.529   c-0.742-5.479-1.139-10.745-1.136-15.667c0.011-14.729,3.23-26.75,9.569-35.731c0.819-1.157,1.699-2.269,2.619-3.3l0.943-1.062   l0.682,1.246c0.183,0.333,0.384,0.651,0.595,0.94l0.157,0.258l0.03,0.26c0.029,0.248,0.086,0.658,0.188,1.197   c0.303,1.589,1.004,4.301,2.58,7.286l0.107,0.2l0.009,0.227c0.111,2.858,0.687,8.468,3.271,13.909   c0.096,0.199,0.215,0.484,0.346,0.812c0.607,1.527,1.476,4.063,1.476,4.063c0.025,3.997,0.483,7.74,1.317,10.829   c0.739,2.664,1.676,4.637,2.957,6.215c1.526,1.929,3.836,3.081,6.265,3.081c1.584-0.013,3.194-0.414,4.922-1.227l1.424-0.667v1.573   v5.557h-24.672H134.708z M177.78,126.529v-5.552v-1.571l1.422,0.665c1.728,0.806,3.336,1.207,5.016,1.22   c2.337,0,4.642-1.15,6.171-3.083c2.268-2.83,3.127-6.416,3.667-9.541c0.48-2.933,0.599-5.66,0.607-7.482   c0,0,0.754-1.824,1.601-4.003c0.771-1.988,1.62-4.271,2.044-5.742c1.042-3.637,1.362-6.934,1.447-9.058l0.011-0.224l0.105-0.201   c1.569-2.971,2.269-5.626,2.578-7.274c0.094-0.5,0.155-0.917,0.191-1.21l0.037-0.313l0.152-0.209   c0.203-0.281,0.396-0.588,0.589-0.937l0.682-1.235l0.938,1.053c1.094,1.224,2.126,2.549,3.072,3.938   c6.047,8.921,9.116,20.728,9.123,35.093c0,4.916-0.395,10.181-1.134,15.665h-13.65H177.78z M227.313,121.701   c0,2.661-2.167,4.828-4.831,4.828h-2.343c0.713-5.465,1.094-10.728,1.096-15.665c0.011-19.43-5.599-31.411-10.307-38.045   c-2.897-4.092-5.818-6.712-7.758-8.189l-0.078-0.059l-0.065-0.074c-0.148-0.168-0.301-0.326-0.473-0.471   c-0.034-0.029-0.071-0.053-0.105-0.082c-1.695-1.412-3.777-1.973-5.768-2.359c-2.032-0.371-4.42-0.551-7.296-0.553   c-3.937,0.002-7.88,0.356-10.491,0.652l-1.113,0.127v-1.119v-6.18h23.596h21.105c2.664,0,4.831,2.167,4.831,4.832V121.701z"/></g><text x="0" y="252.183" fill="#000000" font-size="5px" font-weight="bold" font-family="'Helvetica Neue', Helvetica, Arial-Unicode, Arial, Sans-serif">Created by Gan Khoon Lay</text><text x="0" y="257.183" fill="#000000" font-size="5px" font-weight="bold" font-family="'Helvetica Neue', Helvetica, Arial-Unicode, Arial, Sans-serif">from the Noun Project</text></svg>