<svg xmlns="http://www.w3.org/2000/svg" xmlns:xlink="http://www.w3.org/1999/xlink" version="1.1" x="0px" y="0px" viewBox="0 0 32 40" enable-background="new 0 0 32 32" xml:space="preserve"><path d="M29.316,13.331l-2.938-0.979c-0.129-0.367-0.282-0.736-0.459-1.105l1.386-2.78c0.192-0.385,0.116-0.849-0.188-1.153  l-2.43-2.43c-0.304-0.305-0.769-0.378-1.154-0.188l-2.771,1.386c-0.369-0.177-0.741-0.33-1.113-0.459l-0.98-2.938  C18.532,2.275,18.15,2,17.72,2H14.28c-0.431,0-0.813,0.275-0.949,0.684l-0.979,2.938c-0.366,0.128-0.735,0.282-1.105,0.459  l-2.78-1.386C8.08,4.503,7.617,4.579,7.313,4.883l-2.43,2.43c-0.304,0.304-0.38,0.769-0.188,1.153l1.386,2.78  c-0.177,0.37-0.331,0.739-0.459,1.105l-2.938,0.979C2.275,13.467,2,13.849,2,14.28v3.44c0,0.431,0.275,0.813,0.684,0.948l2.938,0.98  c0.129,0.372,0.283,0.744,0.459,1.113l-1.386,2.771c-0.192,0.385-0.117,0.85,0.188,1.154l2.43,2.43  c0.304,0.304,0.767,0.381,1.153,0.188l2.78-1.386c0.37,0.177,0.739,0.33,1.105,0.459l0.979,2.938C13.468,29.725,13.85,30,14.28,30  h3.439c0.431,0,0.813-0.275,0.948-0.684l0.98-2.938c0.372-0.129,0.745-0.283,1.113-0.459l2.771,1.386  c0.386,0.193,0.849,0.119,1.154-0.188l2.43-2.43c0.305-0.305,0.38-0.77,0.188-1.154l-1.386-2.771  c0.176-0.368,0.33-0.741,0.459-1.113l2.938-0.98C29.725,18.532,30,18.15,30,17.72v-3.44C30,13.849,29.725,13.467,29.316,13.331z   M28,16.999l-2.736,0.913c-0.313,0.104-0.553,0.354-0.645,0.671c-0.164,0.566-0.399,1.141-0.701,1.706  c-0.153,0.285-0.157,0.628-0.013,0.918l1.288,2.576l-1.41,1.41l-2.576-1.288c-0.289-0.145-0.633-0.141-0.918,0.013  c-0.565,0.302-1.14,0.537-1.706,0.701c-0.316,0.092-0.567,0.332-0.671,0.645L16.999,28h-1.998l-0.912-2.736  c-0.104-0.313-0.355-0.553-0.671-0.645c-0.552-0.159-1.123-0.395-1.697-0.701c-0.285-0.153-0.626-0.157-0.917-0.013l-2.585,1.289  l-1.412-1.411l1.288-2.576c0.145-0.29,0.14-0.633-0.013-0.918c-0.302-0.567-0.539-1.141-0.701-1.706  c-0.091-0.315-0.332-0.567-0.645-0.671L4,16.999V15l2.736-0.912c0.313-0.104,0.554-0.355,0.645-0.672  c0.16-0.557,0.39-1.112,0.702-1.696c0.152-0.286,0.157-0.627,0.013-0.917L6.806,8.218l1.412-1.412l2.585,1.289  c0.291,0.144,0.632,0.14,0.917-0.013c0.584-0.312,1.139-0.542,1.696-0.702c0.317-0.091,0.568-0.332,0.672-0.645L15.001,4h1.998  l0.913,2.736c0.104,0.313,0.355,0.553,0.671,0.645c0.565,0.163,1.139,0.399,1.706,0.701c0.285,0.153,0.629,0.158,0.918,0.013  l2.576-1.288l1.411,1.412l-1.289,2.585c-0.145,0.29-0.14,0.631,0.013,0.917c0.307,0.574,0.542,1.145,0.701,1.697  c0.092,0.316,0.332,0.567,0.645,0.671L28,15V16.999z M19.707,13.707L17.414,16l2.293,2.293c0.391,0.391,0.391,1.023,0,1.414  C19.512,19.902,19.256,20,19,20s-0.512-0.098-0.707-0.293L16,17.414l-2.293,2.293C13.512,19.902,13.256,20,13,20  s-0.512-0.098-0.707-0.293c-0.391-0.391-0.391-1.023,0-1.414L14.586,16l-2.293-2.293c-0.391-0.391-0.391-1.023,0-1.414  s1.023-0.391,1.414,0L16,14.586l2.293-2.293c0.391-0.391,1.023-0.391,1.414,0S20.098,13.316,19.707,13.707z"/><text x="0" y="47" fill="#000000" font-size="5px" font-weight="bold" font-family="'Helvetica Neue', Helvetica, Arial-Unicode, Arial, Sans-serif">Created by Sebastian Belalcazar Lareo</text><text x="0" y="52" fill="#000000" font-size="5px" font-weight="bold" font-family="'Helvetica Neue', Helvetica, Arial-Unicode, Arial, Sans-serif">from the Noun Project</text></svg>