<svg xmlns="http://www.w3.org/2000/svg" viewBox="0 0 512 640" x="0px" y="0px"><g><path d="M160,192h8a24.0275,24.0275,0,0,0,24-24v-8H176v8a8.00917,8.00917,0,0,1-8,8h-8Z"/><path d="M240,168V92a44.04978,44.04978,0,0,0-44-44H152a40.04552,40.04552,0,0,0-40,40v80a63.85191,63.85191,0,0,0,21.89594,48.13892l-19.47358,25.9646-60.28759,40.1914A39.85525,39.85525,0,0,0,37.34766,306.583L16.20508,398.20117a7.99776,7.99776,0,0,0,1.28515,6.44824l40,56A7.99968,7.99968,0,0,0,64,464h8v24a8.00008,8.00008,0,0,0,8,8H272a8.00008,8.00008,0,0,0,8-8V464h8a7.99968,7.99968,0,0,0,6.50977-3.35059l40-56a7.99776,7.99776,0,0,0,1.28515-6.44824L314.65234,306.583a39.854,39.854,0,0,0-16.78759-24.28809l-60.28711-40.1914-19.47358-25.9646A63.85191,63.85191,0,0,0,240,168ZM224,92v2.17383a18.60356,18.60356,0,0,1-2.21875-1.26758l-13.78851-9.19238A35.77005,35.77005,0,0,0,202.395,64.74561,28.04252,28.04252,0,0,1,224,92ZM152,64h20a20,20,0,0,1,0,40h-.68652a19.18715,19.18715,0,0,1-13.65674-5.65723A35.08383,35.08383,0,0,0,132.68652,88H128A24.02718,24.02718,0,0,1,152,64ZM128,168V104h4.68652a19.18715,19.18715,0,0,1,13.65674,5.65723A35.08383,35.08383,0,0,0,171.31348,120H172a36.03007,36.03007,0,0,0,32.06854-19.6731l8.83771,5.89185A34.33174,34.33174,0,0,0,224,111.04761V168a48,48,0,0,1-96,0Zm99.04858,213.53174L210.5722,354.071,234.6665,336h18.02L272,355.31348V376H240a7.99583,7.99583,0,0,0-3.57764.84473ZM88,372l26.6665-20h19.793l22,8.8-38,15.2H88Zm90-19.81616-5.16132-2.0647-19.5393-52.10449L176,275.314l22.70062,22.70069-20.24518,53.98681Zm-2-99.4978-26.41486-26.4148a63.7628,63.7628,0,0,0,52.82972,0ZM164.68652,264l-18.49511,18.49512-16.82495-33.65088,8.64172-11.52222Zm41.12207,18.49512L187.31348,264l26.67834-26.678,8.64172,11.52222ZM32.606,398.28516l20.33152-88.1045a23.91536,23.91536,0,0,1,10.07277-14.57324l53.887-35.92431,19.76,39.52,16.07806,42.87476-13.7641-5.50561A8.00164,8.00164,0,0,0,136,336H112a8.00222,8.00222,0,0,0-4.7998,1.59961l-32,24A8.00229,8.00229,0,0,0,72,368v16a8.00008,8.00008,0,0,0,8,8h40a8.00164,8.00164,0,0,0,2.97119-.57227L196.64551,361.958l16.4248,27.375L117.73584,448H68.1167ZM264,480H88V464h32a8.00463,8.00463,0,0,0,4.19287-1.18652l56.2395-34.60889,55.3274,34.57959A7.998,7.998,0,0,0,240,464h24Zm35.0625-169.81934,20.33154,88.1045L283.8833,448H242.29443l-46.6502-29.15674,32.25238-19.84741L241.88867,392H280a8.00008,8.00008,0,0,0,8-8V352a8.00076,8.00076,0,0,0-2.34326-5.65723l-24-24A8.00035,8.00035,0,0,0,256,320H232a8.00222,8.00222,0,0,0-4.7998,1.59961l-28.18244,21.13672,16.325-43.53321,19.76-39.52,53.88648,35.92431A23.914,23.914,0,0,1,299.0625,310.18066Z"/><circle cx="152" cy="144" r="8"/><circle cx="200" cy="144" r="8"/><path d="M472,24H328.00049a24.00035,24.00035,0,0,0-24,24.001l.001,29.332-46.3999,61.86719A7.99978,7.99978,0,0,0,264.00146,152h40v56a24.02719,24.02719,0,0,0,24,24h144a24.02718,24.02718,0,0,0,24-24L496,48A24.02718,24.02718,0,0,0,472,24Zm.00146,192h-144a8.00917,8.00917,0,0,1-8-8L320,120H304v16H280.00146l38.39991-51.2002A8.00061,8.00061,0,0,0,320.00146,80l-.001-31.999a8.00123,8.00123,0,0,1,8-8.001H472a8.00917,8.00917,0,0,1,8,8l.00146,160A8.00916,8.00916,0,0,1,472.00146,216Z"/><path d="M400,80a40.04552,40.04552,0,0,0-40,40,46.32525,46.32525,0,0,0,13.65674,32.9707L376,155.314V184a8.00008,8.00008,0,0,0,8,8h8v8h16v-8h8a8.00008,8.00008,0,0,0,8-8V155.31372l2.34375-2.344A46.32292,46.32292,0,0,0,440,120,40.04552,40.04552,0,0,0,400,80Zm-8,96V160h16v16Zm23.02979-34.34375L412.686,144H387.314l-2.34326-2.34277A30.42939,30.42939,0,0,1,376,120a24,24,0,0,1,48,0A30.427,30.427,0,0,1,415.02979,141.65625Z"/><rect x="392" y="56" width="16" height="16"/><rect x="352.40192" y="72.40185" width="16.00036" height="16.00002" transform="translate(48.71091 278.39865) rotate(-45.00124)"/><rect x="336" y="112" width="16" height="16"/><rect x="448" y="112" width="16" height="16"/><rect x="431.59789" y="72.40167" width="16.00002" height="16.00036" transform="translate(71.89159 334.37595) rotate(-44.99753)"/></g><text x="0" y="527" fill="#000000" font-size="5px" font-weight="bold" font-family="'Helvetica Neue', Helvetica, Arial-Unicode, Arial, Sans-serif">Created by ArmOkay</text><text x="0" y="532" fill="#000000" font-size="5px" font-weight="bold" font-family="'Helvetica Neue', Helvetica, Arial-Unicode, Arial, Sans-serif">from the Noun Project</text></svg>