<svg xmlns="http://www.w3.org/2000/svg" data-name="Layer 1" viewBox="0 0 90 112.5" x="0px" y="0px"><title>More_Food</title><path d="M71.47,13.24a10.43,10.43,0,0,1,0,2,16.57,16.57,0,0,0,0,7.23c.57,2.58-.1,5.41,0,8.12.26,5.92.58,11.83,1.07,17.74.57,6.81,1.36,13.6,2,20.4.26,2.72-.36,3.67-3.18,4-4.24.56-8.52.85-12.78,1.27-3.72.36-7.44.69-11.15,1.12-7.89.92-15.78,1.59-23.72.82a27.8,27.8,0,0,1-4.57-.82A2.79,2.79,0,0,1,17,72.37c-.6-10.18-1.32-20.36-1.82-30.55a75.35,75.35,0,0,1,.5-8.72c.13-1.95,1-3.94-.38-5.79a.93.93,0,0,1,0-.79c1-2.21.46-4.46.29-6.72-.19-2.61,0-3,2.68-3.46,5-.84,10.07-1.66,15.15-2.15,7.52-.73,15.07-1.3,22.62-1.66,4.17-.2,8.37.15,12.56.3A27.56,27.56,0,0,1,71.47,13.24ZM17.82,27.75c-.41,4.94-.94,9.28-1.07,13.63-.12,4,.13,8,.36,12,.33,5.65.82,11.28,1.18,16.92.22,3.48.29,3.64,3.68,4.19a23.26,23.26,0,0,0,4.08.4c5.38-.1,10.76-.11,16.12-.51,6.45-.48,12.87-1.35,19.31-2,2.9-.3,5.82-.43,8.72-.77,2.57-.3,3-.81,2.81-3.34-.2-2.82-.61-5.62-.83-8.43Q71.06,45.53,70,31.22c-.15-2.07-.22-4.14-.33-6.4a22,22,0,0,0-3.2-.29C50.3,25.58,34.14,26.66,17.82,27.75Zm52-13c-7.4-2.07-46.84.84-52.79,3.92l.52,4.5c3.26.58,48.49-3,51.56-4.08ZM17.3,25.41l.09,1,52.36-3.87a3,3,0,0,0-3.07-1.14c-8.36.68-16.72,1.37-25.08,2-7.27.56-14.55,1-21.83,1.59C18.95,25,18.13,25.26,17.3,25.41Z"/><path d="M65.12,40.55a31.6,31.6,0,0,1-1,4.94c-2,5.21-1.8,10.54-1.22,15.92.32,3,.32,3.26-2.58,4.07s-5.7,1.18-8.55,1.81a53.66,53.66,0,0,1-13.55,1.2,42,42,0,0,0-7.59.56c-2.21.33-3.56-1.2-5.13-2.11-.62-.36-.65-1.94-.75-3-.52-5.71-.89-11.44-1.5-17.14a18.92,18.92,0,0,0-1.58-4.58c-.3-.76-.81-1.43-1.1-2.19a6.08,6.08,0,0,1,4.28-8.45c2.8-.75,5.63-1.42,8.44-2.14A14.09,14.09,0,0,1,44.34,31c1.6,1,2.67.74,4.21-.06a25,25,0,0,1,6.62-2.42c4.28-.82,8.35.74,9.31,6.39C64.79,36.83,64.92,38.75,65.12,40.55ZM32,67.07c5.89-.27,11.43.49,16.94-.81,3.37-.8,6.82-1.21,10.2-2,2.27-.52,2.41-.94,2.26-3.29s-.27-4.73-.47-7.09a14.1,14.1,0,0,1,.88-6.43,27.88,27.88,0,0,0,1.28-4.75,18.76,18.76,0,0,0-.17-8.41,5.23,5.23,0,0,0-5.48-4.37,8.37,8.37,0,0,0-3,.39,36.93,36.93,0,0,0-5.73,2.5c-1.58.9-2.74,1.31-4.36-.08a9.9,9.9,0,0,0-6.62-2.23,21.09,21.09,0,0,0-10,2.49c-2.16,1.17-2.37,1.88-1.49,4.23,1,2.64,2.1,5.24,3,7.93a29.94,29.94,0,0,1,1.37,6.11c.37,3.72.42,7.46.68,11.19C31.4,64,31.72,65.44,32,67.07Zm-6.43-22.2-.67.06,1.51,16.19C26.38,55.68,27.44,50.14,25.54,44.88ZM22,35.79c-.74,2.84-.09,4.68,1.83,6.29Zm7,30.88c.38-2.11.38-2.11-.32-2.85-.06.16-.19.33-.17.48C28.67,65.1,28.85,65.88,29,66.67Z"/><path d="M54.28,36.91c-1.87,3.43-3.77,6.79-5.75,10.46-1.34-1.59-.42-2.38,0-3.15C52.31,37.26,52.32,37.26,54.28,36.91Z"/><path d="M53.2,47.64c-1-.86-.53-1.62-.25-2.31,1.51-3.68,3.07-6.11,4.3-6.74C57.49,40.2,55.47,44.77,53.2,47.64Z"/><text x="0" y="105" fill="#000000" font-size="5px" font-weight="bold" font-family="'Helvetica Neue', Helvetica, Arial-Unicode, Arial, Sans-serif">Created by Kate Maldjian</text><text x="0" y="110" fill="#000000" font-size="5px" font-weight="bold" font-family="'Helvetica Neue', Helvetica, Arial-Unicode, Arial, Sans-serif">from the Noun Project</text></svg>