<svg xmlns="http://www.w3.org/2000/svg" xmlns:xlink="http://www.w3.org/1999/xlink" xml:space="preserve" version="1.1" style="shape-rendering:geometricPrecision;text-rendering:geometricPrecision;image-rendering:optimizeQuality;" viewBox="0 0 846660 1058325" x="0px" y="0px" fill-rule="evenodd" clip-rule="evenodd"><defs><style type="text/css">
   
    .fil0 {fill:black}
   
  </style></defs><g><path class="fil0" d="M121600 705610l0 19910 603460 -160 0 -19750 -132780 -93340c40090,-19690 67840,-61030 67840,-108520l0 -261800c0,-66470 -54350,-120810 -120820,-120810l-231880 0c-66470,0 -120810,54340 -120810,120810l0 261800c0,47270 27520,88340 67280,108200l-132290 93660zm407370 -81050l-210890 0 -36720 26330 284270 0 -36660 -26330zm-226560 -155290c19260,0 34820,15280 34820,34160 0,18870 -15560,34160 -34820,34160 -19200,0 -34760,-15290 -34760,-34160 0,-18880 15560,-34160 34760,-34160zm241790 0c19250,0 34810,15280 34810,34160 0,18870 -15560,34160 -34810,34160 -19200,0 -34760,-15290 -34760,-34160 0,-18880 15560,-34160 34760,-34160zm-185920 -310710l130110 0c27090,0 27090,40960 0,40960l-130110 0c-27090,0 -27090,-40960 0,-40960zm-76700 79150l283560 0c24210,0 44010,19800 44010,44000l0 76590c0,24210 -19800,44010 -44010,44010l-283560 0c-24210,0 -44010,-19800 -44010,-44010l0 -76590c0,-24200 19800,-44000 44010,-44000zm315930 436080l-348080 0 -35030 25130 417920 -110 -34810 -25020z"/></g><text x="0" y="846675" fill="#000000" font-size="5px" font-weight="bold" font-family="'Helvetica Neue', Helvetica, Arial-Unicode, Arial, Sans-serif">Created by Manaqib S</text><text x="0" y="846680" fill="#000000" font-size="5px" font-weight="bold" font-family="'Helvetica Neue', Helvetica, Arial-Unicode, Arial, Sans-serif">from the Noun Project</text></svg>