<svg xmlns="http://www.w3.org/2000/svg" xmlns:xlink="http://www.w3.org/1999/xlink" version="1.1" x="0px" y="0px" viewBox="0 0 160 200" style="enable-background:new 0 0 160 160;" xml:space="preserve"><path d="M125.471,49.396l-6.101-6.1c-1.223-1.223-1.896-2.85-1.896-4.58v-0.634c2.94-1.115,5.039-3.953,5.039-7.28V13.288  c0-4.296-3.495-7.791-7.791-7.791H45.278c-4.296,0-7.791,3.495-7.791,7.791v17.516c0,3.326,2.099,6.164,5.039,7.28v0.634  c0,1.73-0.674,3.356-1.896,4.58l-6.101,6.1c-4.13,4.13-6.405,9.622-6.405,15.463v66.076c0,12.995,10.572,23.567,23.567,23.567  h56.618c12.995,0,23.567-10.572,23.567-23.567V64.86C131.876,59.019,129.602,53.528,125.471,49.396z M35.124,74.181h89.752v47.068  H35.124V74.181z M44.487,13.288c0-0.436,0.354-0.791,0.791-0.791h69.444c0.437,0,0.791,0.355,0.791,0.791v17.516  c0,0.436-0.354,0.791-0.791,0.791H45.278c-0.437,0-0.791-0.355-0.791-0.791V13.288z M39.479,54.347l6.1-6.1  c2.546-2.545,3.947-5.93,3.947-9.53v-0.123h60.948v0.123c0,3.6,1.401,6.984,3.947,9.53l6.101,6.1  c2.808,2.809,4.354,6.542,4.354,10.514v4.321H35.124V64.86C35.124,60.888,36.67,57.155,39.479,54.347z M108.309,147.503H51.691  c-9.135,0-16.567-7.432-16.567-16.567v-4.687h89.752v4.687C124.876,140.072,117.445,147.503,108.309,147.503z"/><path d="M93.785,82.849c-4.525-3.995-11.567-3.94-16.031,0.123c-1.941,1.765-3.229,4.053-3.724,6.615  c-0.211,1.095-1.079,1.945-2.213,2.17c-2.341,0.463-4.471,1.602-6.16,3.292c-2.338,2.338-3.62,5.575-3.518,8.881  c0.104,3.352,1.551,6.424,4.074,8.651c2.237,1.976,5.09,2.961,7.943,2.961c2.916,0,5.832-1.029,8.09-3.083  c1.941-1.767,3.229-4.055,3.722-6.614c0.211-1.095,1.079-1.946,2.213-2.171c2.339-0.462,4.469-1.601,6.16-3.292  c2.338-2.338,3.62-5.574,3.518-8.88C97.755,88.15,96.309,85.077,93.785,82.849z M90.807,96.847  c-0.988,0.988-2.231,1.653-3.595,1.923c-3.139,0.619-5.554,3.024-6.153,6.128c-0.287,1.493-1.04,2.829-2.177,3.862  c-2.606,2.374-6.717,2.404-9.359,0.073c-1.478-1.305-2.324-3.101-2.385-5.059c-0.062-1.961,0.669-3.804,2.056-5.19  c0.986-0.988,2.229-1.652,3.594-1.923c3.14-0.62,5.555-3.025,6.153-6.127c0.288-1.494,1.041-2.83,2.178-3.863  c2.605-2.373,6.717-2.406,9.357-0.074c1.479,1.305,2.325,3.102,2.386,5.061C92.923,93.618,92.193,95.46,90.807,96.847z"/><text x="0" y="175" fill="#000000" font-size="5px" font-weight="bold" font-family="'Helvetica Neue', Helvetica, Arial-Unicode, Arial, Sans-serif">Created by Symbolon</text><text x="0" y="180" fill="#000000" font-size="5px" font-weight="bold" font-family="'Helvetica Neue', Helvetica, Arial-Unicode, Arial, Sans-serif">from the Noun Project</text></svg>