<svg xmlns="http://www.w3.org/2000/svg" data-name="Слой 1" viewBox="0 0 128 160" x="0px" y="0px"><title>ic_process_timer</title><path d="M126,80H2a2,2,0,0,0-2,2v23H0v9a2,2,0,0,0,2,2H126a2,2,0,0,0,2-2V82A2,2,0,0,0,126,80ZM80,112H63.78L80,95.82Zm0-21.83L58.11,112H41.77l28-28H80ZM19.77,112l28-28H64.11l-28,28Zm.35-28L4,100.16V84ZM4,105.83,25.77,84H42.11l-28,28H4ZM124,112H84V91h0V84h40Z"/><path d="M64,72A30,30,0,1,0,34,42,30,30,0,0,0,64,72Zm0-56A26,26,0,1,1,38,42,26,26,0,0,1,64,16Z"/><path d="M64,44H74a2,2,0,0,0,0-4H66V22a2,2,0,0,0-4,0V42A2,2,0,0,0,64,44Z"/><text x="0" y="143" fill="#000000" font-size="5px" font-weight="bold" font-family="'Helvetica Neue', Helvetica, Arial-Unicode, Arial, Sans-serif">Created by LAFS</text><text x="0" y="148" fill="#000000" font-size="5px" font-weight="bold" font-family="'Helvetica Neue', Helvetica, Arial-Unicode, Arial, Sans-serif">from the Noun Project</text></svg>