<svg xmlns="http://www.w3.org/2000/svg" xmlns:xlink="http://www.w3.org/1999/xlink" version="1.1" x="0px" y="0px" viewBox="0 0 1024 1280" style="enable-background:new 0 0 1024 1024;" xml:space="preserve"><g><g><g><path d="M740,393.1c0,15.9,0,31.7,0,47.6c0,38.1,0,76.1,0,114.2c0,46,0,92.1,0,138.1c0,39.8,0,79.6,0,119.4     c0,13.1,0,26.2,0,39.3c0,6.1-0.5,12.5,0,18.6c0,0.3,0,0.5,0,0.8c3.3-3.3,6.7-6.7,10-10c-15.8,0-31.6,0-47.4,0     c-37.9,0-75.9,0-113.8,0c-45.7,0-91.4,0-137.2,0c-39.7,0-79.3,0-119,0c-13,0-26.1,0-39.1,0c-6.2,0-12.5-0.5-18.7,0     c-0.3,0-0.5,0-0.8,0c3.3,3.3,6.7,6.7,10,10c0-15.9,0-31.7,0-47.6c0-38.1,0-76.1,0-114.2c0-46,0-92.1,0-138.1     c0-39.8,0-79.6,0-119.4c0-13.1,0-26.2,0-39.3c0-6.1,0.5-12.5,0-18.6c0-0.3,0-0.5,0-0.8c-3.3,3.3-6.7,6.7-10,10     c15.8,0,31.6,0,47.4,0c37.9,0,75.9,0,113.8,0c45.7,0,91.4,0,137.2,0c39.7,0,79.3,0,119,0c19.2,0,38.6,0.7,57.8,0     c0.3,0,0.5,0,0.8,0c12.9,0,12.9-20,0-20c-15.8,0-31.6,0-47.4,0c-37.9,0-75.9,0-113.8,0c-45.7,0-91.4,0-137.2,0     c-39.7,0-79.3,0-119,0c-19.2,0-38.6-0.7-57.8,0c-0.3,0-0.5,0-0.8,0c-5.4,0-10,4.6-10,10c0,15.9,0,31.7,0,47.6     c0,38.1,0,76.1,0,114.2c0,46,0,92.1,0,138.1c0,39.8,0,79.6,0,119.4c0,19.3-0.7,38.7,0,57.9c0,0.3,0,0.5,0,0.8c0,5.4,4.6,10,10,10     c15.8,0,31.6,0,47.4,0c37.9,0,75.9,0,113.8,0c45.7,0,91.4,0,137.2,0c39.7,0,79.3,0,119,0c19.2,0,38.6,0.7,57.8,0     c0.3,0,0.5,0,0.8,0c5.4,0,10-4.6,10-10c0-15.9,0-31.7,0-47.6c0-38.1,0-76.1,0-114.2c0-46,0-92.1,0-138.1c0-39.8,0-79.6,0-119.4     c0-19.3,0.7-38.7,0-57.9c0-0.3,0-0.5,0-0.8C760,380.2,740,380.2,740,393.1z"/></g></g><g><g><path d="M375.1,647.4c0-19.4,0-38.8,0-58.2c0-30.9,0-61.9,0-92.8c0-7.1,0-14.2,0-21.4c0-12.9-20-12.9-20,0     c0,19.4,0,38.8,0,58.2c0,30.9,0,61.9,0,92.8c0,7.1,0,14.2,0,21.4C355.1,660.3,375.1,660.3,375.1,647.4L375.1,647.4z"/></g></g><g><g><path d="M740,132.4c0,29.5,0,59,0,88.5c0,46.6,0,93.3,0,139.9c0,10.8,0,21.5,0,32.3c3.3-3.3,6.7-6.7,10-10     c-15.8,0-31.6,0-47.4,0c-37.9,0-75.9,0-113.8,0c-45.7,0-91.4,0-137.2,0c-39.7,0-79.3,0-119,0c-13,0-26.1,0-39.1,0     c-6.2,0-12.5-0.5-18.7,0c-0.3,0-0.5,0-0.8,0c3.3,3.3,6.7,6.7,10,10c0-15.3,0-30.6,0-45.9c0-32.6,0-65.3,0-97.9     c0-30.1,0-60.1,0-90.2c0-7.8,0-15.7,0-23.5c0-11.4,4.9-22.1,16.5-26.1c4.7-1.7,9.5-1.4,14.4-1.4c7.1,0,14.2,0,21.2,0     c25.4,0,50.8,0,76.1,0c33.5,0,67,0,100.5,0c33.5,0,66.9,0,100.4,0c25.3,0,50.5,0,75.8,0c7,0,14,0,21,0c5.3,0,10.4-0.3,15.4,1.9     C734.2,113.9,739.8,122.8,740,132.4c0.3,12.9,20.3,12.9,20,0c-0.5-24.3-19.9-44-44.3-44.3c-3.7-0.1-7.5,0-11.2,0     c-21.2,0-42.5,0-63.7,0c-32.6,0-65.1,0-97.7,0c-34.9,0-69.9,0-104.8,0c-28.9,0-57.9,0-86.8,0c-14,0-28-0.1-42,0     c-19.6,0.1-36.9,12.3-43.3,30.9c-2.5,7.4-2.2,15.1-2.2,22.8c0,25.9,0,51.8,0,77.7c0,34.5,0,69.1,0,103.6c0,22.2,0,44.4,0,66.7     c0,1.1,0,2.2,0,3.3c0,5.4,4.6,10,10,10c15.8,0,31.6,0,47.4,0c37.9,0,75.9,0,113.8,0c45.7,0,91.4,0,137.2,0c39.7,0,79.3,0,119,0     c19.2,0,38.6,0.7,57.8,0c0.3,0,0.5,0,0.8,0c5.4,0,10-4.6,10-10c0-29.5,0-59,0-88.5c0-46.6,0-93.3,0-139.9c0-10.8,0-21.5,0-32.3     C760,119.5,740,119.5,740,132.4z"/></g></g><g><g><path d="M375.1,311.8c0-39.2,0-78.4,0-117.5c0-5.5,0-11,0-16.5c0-12.9-20-12.9-20,0c0,39.2,0,78.4,0,117.5     c0,5.5,0,11,0,16.5C355.1,324.7,375.1,324.7,375.1,311.8L375.1,311.8z"/></g></g><g><g><path d="M384,871.1c0,8.8,0,17.6,0,26.4c0,5.1,0,10.2,0,15.3c0,0.8,0.3,2.7-0.2,3.1c-0.5,0.4-3.5,0-4.1,0     c-2.9,0-5.8,0-8.7,0c-5.4,0-10.8,0.2-16.1,0c-2.3-0.1-1.3,0.4-1.9-1c-0.4-1.2,0-3.4,0-4.6c0-2.7,0-5.4,0-8.1     c0-10.4,0-20.8,0-31.1c-3.3,3.3-6.7,6.7-10,10c17,0,34,0,51,0c12.9,0,12.9-20,0-20c-17,0-34,0-51,0c-5.4,0-10,4.6-10,10     c0,10.4,0,20.8,0,31.1c0,4.4-0.1,8.9,0,13.3c0.4,11,8.1,19.7,19.3,20.4c10.1,0.6,20.6,0.3,30.7,0c10.3-0.2,19.3-6.7,20.7-17.3     c0.5-4,0.3-8.1,0.3-12c0-11.8,0-23.7,0-35.5C404,858.2,384,858.2,384,871.1z"/></g></g><g><g><path d="M671,871.1c0,8.8,0,17.6,0,26.4c0,5.1,0,10.2,0,15.3c0,0.8,0.3,2.7-0.2,3.1c-0.5,0.4-3.5,0-4.1,0     c-2.9,0-5.8,0-8.7,0c-5.4,0-10.8,0.2-16.1,0c-2.3-0.1-1.3,0.4-1.9-1c-0.4-1.2,0-3.4,0-4.6c0-2.7,0-5.4,0-8.1     c0-10.4,0-20.8,0-31.1c-3.3,3.3-6.7,6.7-10,10c17,0,34,0,51,0c12.9,0,12.9-20,0-20c-17,0-34,0-51,0c-5.4,0-10,4.6-10,10     c0,10.4,0,20.8,0,31.1c0,4.4-0.1,8.9,0,13.3c0.4,11,8.1,19.7,19.3,20.4c10.1,0.6,20.6,0.3,30.7,0c10.3-0.2,19.3-6.7,20.7-17.3     c0.5-4,0.3-8.1,0.3-12c0-11.8,0-23.7,0-35.5C691,858.2,671,858.2,671,871.1z"/></g></g></g><text x="0" y="1039" fill="#000000" font-size="5px" font-weight="bold" font-family="'Helvetica Neue', Helvetica, Arial-Unicode, Arial, Sans-serif">Created by shashank singh</text><text x="0" y="1044" fill="#000000" font-size="5px" font-weight="bold" font-family="'Helvetica Neue', Helvetica, Arial-Unicode, Arial, Sans-serif">from the Noun Project</text></svg>