<svg xmlns="http://www.w3.org/2000/svg" data-name="Layer 1" viewBox="0 0 100 125" x="0px" y="0px"><title>dollar_falling</title><path d="M99,87.91,92.52,63.74,87.9,68.36,54.47,34.93,45.3,44.1l-6.63-5.89a21.8,21.8,0,0,1-7.52,9.3l14.63,13,8.69-8.69,25,25-4.62,4.62Z"/><path d="M36.39,29.79a17.7,17.7,0,1,0-17.7,17.7A17.7,17.7,0,0,0,36.39,29.79ZM20.13,40v2.73h-2v-2.6a6.85,6.85,0,0,1-5.85-4l2.43-2.35c.77,1.5,2,2.92,3.83,2.92a2.59,2.59,0,0,0,1.63-.56,2.77,2.77,0,0,0,1-2.2c0-1.25-.84-1.94-2-2.53-.59-.31-1.25-.59-1.92-.91-1.94-.93-3.88-2.13-3.88-5.27a5.56,5.56,0,0,1,4.7-5.82V16.83h2V19.4a6.1,6.1,0,0,1,4.35,2.35l-1.83,2.6a3.92,3.92,0,0,0-3-1.67,2.25,2.25,0,0,0-2.32,2.16c0,1.67,2,2.24,3.91,3.2l.1,0a7,7,0,0,1,3,2.47,5.61,5.61,0,0,1,.78,3A6.24,6.24,0,0,1,20.13,40Z"/><text x="0" y="115" fill="#000000" font-size="5px" font-weight="bold" font-family="'Helvetica Neue', Helvetica, Arial-Unicode, Arial, Sans-serif">Created by Davo Sime</text><text x="0" y="120" fill="#000000" font-size="5px" font-weight="bold" font-family="'Helvetica Neue', Helvetica, Arial-Unicode, Arial, Sans-serif">from the Noun Project</text></svg>