<svg xmlns="http://www.w3.org/2000/svg" xmlns:xlink="http://www.w3.org/1999/xlink" version="1.1" x="0px" y="0px" viewBox="0 0 186.837 366.78875" style="enable-background:new 0 0 186.837 293.431;" xml:space="preserve"><g><path d="M185.347,95.433c-1.715-3.219-4.355-5.352-7.289-6.992c-4.454-2.438-9.997-4.029-17.49-5.286   c-6.364-1.046-14.135-1.776-23.638-2.145c4.419,4.187,7.296,9.981,7.68,16.44c10.055,0.728,17.151,1.954,21.552,3.326   c1.469,0.442,2.619,0.908,3.46,1.313c-0.665,0.598-1.559,1.3-2.631,1.987c-3.137,2.063-7.698,4.157-12.284,5.605   c-4.257,1.373-8.599,2.176-11.681,2.266c-0.084-0.003-0.165-0.013-0.249-0.013h-1.833c-4.362,7.013-12.136,11.693-20.985,11.693   c-9.217,0-17.266-5.078-21.509-12.58c-3.37-1.027-6.501-2.902-9.68-5.57c-3.62-3.041-7.023-7.121-10.223-11.608   c0.758-5.769,1.671-11.396,2.712-16.387c0.936,0.613,2.037,0.974,3.221,0.974c3.371,0,6.104-2.875,6.104-6.421   c0-3.546-2.732-6.42-6.104-6.42c-7.254-1.036-16.155-1.406-25.274-1.327c-1.157-1.336-2.403-2.587-3.878-3.721   c-1.995-1.522-4.611-2.936-7.888-3.197c-4.407-0.34-8.254,2.957-8.591,7.363c-0.011,0.139-0.009,0.276-0.012,0.414   c-12.916,0.957-23.908,2.566-28.173,4.117C1.403,72.632,0,116.134,0,127.082c0,10.945,1.403,54.447,10.665,57.814   c9.262,3.369,50.238,7.018,73.814,3.649c3.371,0,6.104-2.874,6.104-6.42s-2.732-6.421-6.104-6.421c-1.184,0-2.285,0.36-3.221,0.974   c-3.211-15.39-5.199-36.878-5.199-49.597c0-3.238,0.131-7.05,0.375-11.18c3.19,2.974,6.734,5.65,10.748,7.742   c2.845,1.488,5.944,2.647,9.231,3.395v61.017c0,0.034,0.005,0.066,0.005,0.101c-2.454,2.566-5.063,5.705-7.638,9.552   c-9.039,13.434-17.266,35.049-17.231,67.506c0,5.336,0.217,10.973,0.687,16.928c0.506,6.419,5.872,11.289,12.202,11.289   c0.322,0,0.646-0.013,0.974-0.038c6.745-0.532,11.782-6.432,11.25-13.177c-0.422-5.336-0.61-10.33-0.612-15.002   c0.037-28.443,6.966-44.679,13.086-53.871c3.081-4.597,6.024-7.457,8.027-9.108c1.002-0.824,1.769-1.342,2.192-1.609   c0.188-0.119,0.309-0.189,0.353-0.214c1.478-0.758,2.736-1.776,3.75-2.973c1.018,1.202,2.284,2.226,3.771,2.984   c0.508,0.3,6.066,3.559,11.713,12.729c5.786,9.456,11.896,25.398,11.923,52.063c0.002,4.667-0.191,9.666-0.608,15.013   c-0.527,6.745,4.515,12.64,11.26,13.166c0.324,0.025,0.649,0.037,0.969,0.037c6.332,0.001,11.695-4.876,12.198-11.297   c0.463-5.946,0.682-11.579,0.682-16.919c0.037-32.457-8.191-54.072-17.227-67.507c-2.575-3.846-5.183-6.983-7.637-9.55   c0-0.034,0.005-0.067,0.005-0.102v-60.869c6.282-1.094,12.736-3.262,18.61-6.025c4.216-2.028,8.071-4.353,11.297-7.255   c1.607-1.465,3.081-3.089,4.285-5.097c1.186-1.991,2.138-4.493,2.14-7.374C186.849,99.389,186.311,97.251,185.347,95.433z    M88.128,72.21c0,1.776-0.89,3.324-2.22,4.206c0.653-0.738,1.062-1.721,1.062-2.809c0-2.221-1.668-4.019-3.759-4.114   c0.225-0.772,0.453-1.51,0.686-2.21C86.271,67.552,88.128,69.642,88.128,72.21z M88.128,181.951c0,2.569-1.856,4.659-4.231,4.928   c-0.232-0.7-0.461-1.438-0.686-2.21c2.091-0.096,3.759-1.895,3.759-4.114c0-1.088-0.408-2.071-1.062-2.81   C87.237,178.627,88.128,180.175,88.128,181.951z M80.478,186.017c-23.631,2.516-60.678-0.99-68.787-3.939   C7.143,180.423,3,154.21,3,127.08c0-27.129,4.143-53.342,8.69-54.998c8.109-2.947,45.156-6.453,68.787-3.938   c-4.627,15.444-7.418,43.69-7.418,58.937C73.06,142.327,75.851,170.573,80.478,186.017z"/><circle cx="119.959" cy="98.929" r="22.5"/><path d="M130.145,34.476c2.054-1.05,3.858-2.452,5.122-4.342c1.157-1.729,2.052-3.63,2.171-5.287   c4.389-2.152,6.885-5.916,5.685-11.049c-1.259-5.388-7.075-7.579-11.914-8.443c-3.85-0.688-8.025-0.762-12.256-0.319   c-1.364-1.322-2.936-2.462-4.695-3.333c-7.784-3.854-17.397-0.514-24.328,3.551c-7.95,4.662-14.486,11.842-18.024,20.35   c-2.263,5.439,1.26,8.318,7.023,9.604c2.793,4.341,9.265,6.6,13.711,7.919c0.688,0.204,1.385,0.384,2.084,0.558   c0.125,0.162,0.26,0.32,0.41,0.476c-1.389,1.562-1.69,3.27,0.877,4.722c-0.1,0.378-0.175,0.771-0.221,1.178   c-0.816,7.264,7.149,8.241,12.809,7.745c0.047,0.676,0.245,1.425,0.641,2.262c2.253,4.771,8.865,5.603,12.027,1.401   c0.198-0.264,0.134-0.448-0.156-0.582c-2.259-1.047-1.377-0.352-4.258-0.722c-0.75-0.097-3.381,1.166-1.83,1.365   c0.047,0.006,3.338,0.356,3.171,0.578c-0.979,1.301-2.457,0.538-3.403-0.006c-1.126-0.647-2.013-1.703-2.652-2.811   c-0.344-0.594-0.531-1.245-0.589-1.909c3.469-0.672,7.268-2.005,9.718-4.578c0.328-0.344-0.067-0.622-0.414-0.639   c-3.651-0.17-11.259,0.438-12.179,4.5c-3.095,0.224-6.209-0.352-8.409-2.315c-1.526-1.361-2.004-2.885-1.821-4.384   c5.964,2.045,13.77,0.899,19.492-0.33c1.818-0.391,13.61-2.767,11.018-6.663c-0.522-0.784-1.421-1.386-2.471-1.857   c0.863-1.048,1.275-2.146,0.663-3.099C128.457,37.105,129.507,35.944,130.145,34.476z M111.647,55.895   c0.356-1.442,1.924-2,3.212-2.254c3.138-0.619,3.321,0.083,0.614,1.301c-1.16,0.522-2.483,0.966-3.874,1.28   C111.618,56.114,111.621,56.003,111.647,55.895z M125.685,36.857c-0.02-0.01-0.038-0.021-0.06-0.03   c0.035-0.077,0.075-0.149,0.109-0.228c0.072-0.166,0.123-0.33,0.184-0.494c0.315-0.09,0.629-0.188,0.941-0.289   C126.518,36.193,126.127,36.542,125.685,36.857z M81.571,33.875c-0.485-0.801-0.827-1.666-0.988-2.594   c2.389,1.391,5.119,2.388,7.834,3.159C86.281,34.345,83.88,34.252,81.571,33.875z M116.85,6.532   c3.668,4.018,5.508,9.96,4.409,15.034c-1.693-0.539-3.392-0.907-4.885-1.14c-1.335-0.208-2.753-0.359-4.21-0.443   c-3.561-0.944-8.005-0.639-10.932-0.503c-2.515,0.117-6.766,0.451-10.98,1.374c1.475-4.135,6.764-7.262,10.192-9.007   C104.351,9.859,110.492,7.632,116.85,6.532z M127.034,28.539c1.225,2.234,1.404,4.044,0.893,5.513   c-0.532,0.261-1.078,0.5-1.64,0.715c0.457-2.639-0.633-4.99-2.477-6.814c0.9-0.057,1.798-0.137,2.693-0.239   C126.688,27.982,126.875,28.248,127.034,28.539z M122.46,35.886c-3.391-0.604-7.207-0.198-10.886,0.664   c-3.741-0.181-7.409-0.669-10.63-1.146c-0.399-0.06-0.81-0.122-1.223-0.187c5.182-0.737,9.542-1.842,11.409-2.857   c0.101-0.055,0.21-0.123,0.315-0.184c3.181-0.758,6.315-2.003,8.629-4.101c0.005,0,0.01,0.001,0.015,0.001   c0.018,0.013,0.037,0.023,0.055,0.036c2.725,1.945,3.598,4.854,3.073,7.592C122.965,35.765,122.717,35.834,122.46,35.886z    M108.935,27.47c1.548,0.162,3.084,0.285,4.594,0.379c-1.009,1.457-2.587,2.754-3.52,3.5c-0.003,0.003-0.007,0.005-0.01,0.007   c-2.496,0.571-5.288,0.858-7.988,0.718c2.338-2.049,4.928-3.736,6.735-4.524C108.81,27.522,108.874,27.497,108.935,27.47z    M108.222,25.693c-3.025-0.453-6.037-1.112-8.918-2.151c-1.03-0.372-0.996-0.496-0.511-0.628c4.472,0.056,9.445,0.433,13.996,1.763   c-1.075,0.385-2.123,0.792-3.151,1.222C109.163,25.832,108.69,25.763,108.222,25.693z M117.876,26.713   c-0.363-0.019-0.726-0.039-1.088-0.063c0.059-0.133,0.112-0.266,0.162-0.399C117.262,26.401,117.572,26.551,117.876,26.713z    M114.471,25.278c0.009,0.389-0.069,0.781-0.206,1.171c-0.757-0.072-1.508-0.156-2.255-0.245   C112.822,25.883,113.642,25.575,114.471,25.278z M116.029,27.984c0.461,0.021,0.922,0.042,1.386,0.057   c-0.671,0.563-1.418,1.078-2.268,1.519c-0.255,0.132-0.525,0.259-0.804,0.384C114.964,29.342,115.548,28.679,116.029,27.984z    M119.8,25.278c-0.76-0.358-1.543-0.69-2.348-1.001c1.091-0.341,2.188-0.66,3.293-0.941   C120.492,24.009,120.176,24.658,119.8,25.278z M116.967,23.28c-0.179-0.406-0.428-0.804-0.798-1.18   c-0.073-0.074-0.158-0.136-0.235-0.206c1.047,0.186,2.079,0.427,3.076,0.736C118.314,22.847,117.633,23.065,116.967,23.28z    M113.237,22.906c-2.309-0.617-4.722-1.075-7.188-1.369c0.037-0.003,0.075-0.008,0.113-0.011c1.335-0.112,2.808-0.168,4.336-0.14   C111.584,21.737,112.525,22.23,113.237,22.906z M100.458,21.147c-1.35-0.032-2.698-0.022-4.04,0.033   c0.198-0.023,0.403-0.045,0.587-0.066c1.311-0.153,3.304-0.39,5.483-0.483C101.8,20.778,101.121,20.948,100.458,21.147z    M96.251,22.919c-0.263,0.149-0.526,0.297-0.779,0.459c-0.347,0.224-0.439,0.57-0.039,0.76c3.466,1.643,7.37,2.531,11.306,3.066   c-2.52,1.247-4.916,2.744-7.252,4.604c-4.24-0.699-7.894-2.667-9.246-6.546c-0.235-0.676-0.351-1.332-0.373-1.971   C91.985,23.051,94.119,22.947,96.251,22.919z M100.694,33.298c1.78,0.058,3.481-0.025,4.907-0.172   c0.57-0.059,1.162-0.13,1.762-0.21c-2.343,1.04-5.102,1.521-7.92,1.703C99.838,34.172,100.256,33.73,100.694,33.298z    M122.428,26.782c-0.242-0.177-0.491-0.346-0.746-0.507c0.168-0.235,0.338-0.471,0.488-0.723c0.245-0.41,0.448-0.828,0.651-1.245   c1.058,0.634,2.007,1.395,2.815,2.296C124.573,26.698,123.503,26.756,122.428,26.782z M124.005,22.611   c1.583-0.3,3.169-0.53,4.747-0.655c2.236-0.177,5.471-0.124,5.973,2.595c-0.723,0.336-1.48,0.62-2.26,0.841   c-1.137,0.321-2.299,0.574-3.475,0.777C127.736,24.663,125.957,23.498,124.005,22.611z M86.756,23.748   c0.12-0.022,0.242-0.033,0.363-0.055c-0.042,1.225,0.2,2.499,0.824,3.809c1.695,3.559,5.815,5.068,10.012,5.586   c-0.541,0.5-1.048,1.023-1.511,1.563c-5.528-1.059-11.563-2.816-15.757-6.279c0.367-1.539,1.319-2.729,2.615-3.657   C84.964,24.199,86.521,23.791,86.756,23.748z M107.597,37.659c-1.854,0.596-3.604,1.261-5.176,1.918   c-1.887-0.198-3.769-0.449-5.642-0.744c0.254-0.736,0.649-1.492,1.149-2.249C101.121,37.138,104.354,37.499,107.597,37.659z    M114.006,41.375c1.422-0.063,3.069-0.191,4.765-0.447c0.312,0.062,0.658,0.136,1.029,0.224c-0.572,0.438-1.201,0.819-1.888,1.123   c-4.387,1.938-9.736,2.049-14.896,1.331c0.63-0.433,1.269-0.792,1.873-1.056c1.061-0.462,2.187-0.835,3.346-1.134   C110.161,41.463,112.086,41.46,114.006,41.375z M100.579,43.21c-0.563-0.106-1.119-0.222-1.671-0.343   c0.979-0.684,2.162-1.302,3.242-1.804c0.831,0.074,1.663,0.143,2.495,0.196C103.22,41.772,101.83,42.418,100.579,43.21z    M99.771,40.826c-0.861,0.46-1.792,1.009-2.649,1.616c-0.062-0.016-0.122-0.031-0.184-0.047c-0.353-0.616-0.504-1.284-0.476-1.988   C97.563,40.563,98.666,40.703,99.771,40.826z M101.427,44.881c4.123,0.452,8.309,0.404,12.35-0.251   c2.939-0.477,5.675-1.379,7.892-2.973c0.434,0.134,0.868,0.28,1.289,0.438c-0.815,0.738-1.748,1.372-2.352,1.707   c-5.524,3.062-12.747,2.911-18.713,1.494c-0.248-0.058-0.469-0.127-0.698-0.192C101.271,45.03,101.348,44.955,101.427,44.881z    M119.132,39.351c-2.938-0.337-5.928-0.04-8.83,0.453c-0.401,0.068-0.819,0.148-1.243,0.235c-1.313-0.039-2.628-0.119-3.943-0.22   c2.191-0.86,4.618-1.603,7.106-2.075c2.406-0.026,4.809-0.155,7.193-0.42c0.067-0.008,0.138-0.017,0.205-0.024   c0.989,0.091,1.96,0.255,2.901,0.499c-0.126,0.265-0.265,0.524-0.417,0.777C121.149,38.893,120.145,39.148,119.132,39.351z    M130.759,32.235c0.239-1.954-0.172-3.614-1.021-5.018c1.709-0.323,3.388-0.757,5.024-1.316   C134.493,28.221,132.645,30.627,130.759,32.235z M139.24,12.237c2.837,4.403,1.243,8.311-2.042,10.821   c-0.468-1.157-1.606-2.037-3.717-2.404c-3.025-0.526-6.322-0.128-9.555,0.618c1.359-5.398-0.3-11.033-3.955-15.183   C127.819,5.234,135.496,6.426,139.24,12.237z M78.37,18.338c6.581-9.84,20.118-19.879,32.418-15.842   c1.853,0.608,3.528,1.646,4.981,2.968c-8.608,1.418-17.166,4.897-23.41,9.733c-2.225,1.724-4.102,3.9-4.874,6.356   c-1.762,0.516-3.444,1.154-4.91,1.946c-0.367,0.116-0.742,0.223-1.1,0.347c-2.024,0.701-3.949,1.577-5.533,3.044   c-0.163,0.151-0.151,0.326-0.027,0.483c0.518,0.654,1.098,1.257,1.726,1.813c-0.226,1.115-0.161,2.36,0.252,3.745   c-0.934-0.351-1.812-0.786-2.593-1.344C71.365,28.78,76.596,20.991,78.37,18.338z M93.206,41.327   c-3.133-1-7.353-2.783-10.059-5.478c3.432,0.32,7.253,0.27,10.965-0.017c0.135,0.029,0.272,0.06,0.405,0.089   c0.275,0.06,0.554,0.107,0.829,0.164c-0.511,0.759-0.923,1.533-1.207,2.305c-1.549-0.276-3.092-0.573-4.619-0.894   c-0.753-0.158-3.383,1.038-1.83,1.365c2.003,0.422,4.023,0.8,6.054,1.134c-0.063,0.511-0.059,1.014,0.02,1.504   C93.579,41.441,93.388,41.384,93.206,41.327z M97.064,46.447c-0.209-0.334-0.278-0.67-0.245-1.006   c0.233,0.135,0.481,0.264,0.744,0.389c-0.168,0.212-0.316,0.436-0.465,0.662C97.089,46.475,97.074,46.462,97.064,46.447z    M124.503,46.428c-3.679,1.915-8.353,2.43-12.413,2.89c-3.233,0.366-9.577,0.782-13.118-1.161c0.23-0.504,0.519-0.997,0.854-1.469   c6.75,2.065,15.588,1.184,21.739-1.896c0.843-0.422,2.001-1.115,3.067-1.939C126.391,43.831,127.106,45.074,124.503,46.428z    M124.378,40.367c-0.32-0.091-0.64-0.173-0.958-0.248c0.129-0.136,0.257-0.273,0.38-0.417c0.27-0.098,0.533-0.204,0.795-0.313   C124.623,39.701,124.545,40.03,124.378,40.367z"/><path d="M145.171,52.103c0.477-1.229,1.368-2.779,2.674-4.646c1.251-1.799,2.572-3.781,3.967-5.955   c1.396-2.171,2.159-3.441,2.292-3.809c0.169-0.461,0.081-0.977-0.259-1.539c-0.34-0.563-0.771-0.941-1.299-1.136   c-0.488-0.174-1.174-0.139-2.055,0.107c-0.878,0.246-1.561,0.822-2.048,1.729c-0.481,0.904-0.754,1.43-0.808,1.577   c-0.533,1.459-1.655,3.543-3.367,6.246c-1.566,2.502-2.716,5.081-3.436,7.725c0.526,0.805,1.45,1.444,2.769,1.926   C144.282,53.773,144.804,53.028,145.171,52.103z"/><path d="M137.487,62.402c0.486,0.176,1.189,0.166,2.094-0.034c0.908-0.199,1.581-0.71,2.019-1.539l0.64-1.154   c0.109-0.301-0.092-0.793-0.605-1.472c-0.514-0.681-0.995-1.101-1.444-1.263c-0.683-0.251-1.466-0.088-2.35,0.488   c-0.877,0.575-1.428,1.165-1.648,1.771C135.604,60.809,136.037,61.874,137.487,62.402z"/><path d="M151.457,68.916c0.792,0.286,1.751,0.304,2.88,0.047c1.129-0.25,1.846-0.787,2.139-1.602   c0.38-1.043-0.018-1.821-1.186-2.337c-0.48-0.68-0.937-1.102-1.358-1.255c-0.604-0.219-1.129-0.254-1.57-0.101   c-0.16,0.064-0.36,0.124-0.607,0.184c-1.316,0.34-2.085,0.815-2.308,1.42c-0.269,0.737-0.205,1.458,0.183,2.148   C150.018,68.114,150.628,68.615,151.457,68.916z"/><path d="M165.494,40.156l0.019,0.005c-1.403,0.211-2.652,0.623-3.752,1.244c-1.098,0.625-1.773,1.286-2.028,1.982   c-0.423,1.159-0.026,1.96,1.185,2.401c1.863,0.679,3.086,0.459,3.684-0.651c0.193-0.32,0.605-0.565,1.241-0.735   c0.637-0.175,1.667,0.001,3.092,0.519c0.486,0.175,0.949,0.433,1.376,0.768c0.43,0.336,0.699,0.631,0.797,0.883   c0.102,0.256,0.119,0.801,0.043,1.64c-0.073,0.84-0.192,1.481-0.356,1.929c-0.229,0.632-0.618,1.216-1.166,1.746   c-0.554,0.531-1.097,0.812-1.63,0.84l-3.051,0.078c-1.925,0.047-3.244,0.116-3.964,0.215c-0.711,0.097-1.542,0.32-2.489,0.663   c-1.395,1.34-2.287,2.244-2.672,2.708c-0.383,0.464-0.691,1.008-0.916,1.626c-0.212,0.579-0.307,1.174-0.289,1.786   c0.018,0.61,0.209,0.983,0.579,1.115c1.13,0.411,1.994,0.538,2.591,0.384c0.593-0.157,1.079-0.555,1.461-1.191   c0.732-1.194,1.449-2.189,2.136-2.982c3.724,0.057,6.205,0.028,7.44-0.083c1.23-0.112,2.471-0.644,3.715-1.604   c1.244-0.958,2.223-2.419,2.934-4.381l0.009-0.019c0.622-1.79,0.885-3.172,0.793-4.145c-0.095-0.977-0.686-2.206-1.77-3.688   c-0.652-0.924-1.726-1.622-3.227-2.094c-0.773-0.249-1.546-0.507-2.314-0.773C167.859,39.969,166.705,39.91,165.494,40.156z"/></g><text x="0" y="308.431" fill="#000000" font-size="5px" font-weight="bold" font-family="'Helvetica Neue', Helvetica, Arial-Unicode, Arial, Sans-serif">Created by Gan Khoon Lay</text><text x="0" y="313.431" fill="#000000" font-size="5px" font-weight="bold" font-family="'Helvetica Neue', Helvetica, Arial-Unicode, Arial, Sans-serif">from the Noun Project</text></svg>