<svg xmlns="http://www.w3.org/2000/svg" xmlns:xlink="http://www.w3.org/1999/xlink" version="1.1" viewBox="1 1 88 110" x="0px" y="0px"><defs><circle id="a" cx="96" cy="96" r="88"/></defs><clipPath><use width="100%" height="100%" overflow="visible" xlink:href="#a"/></clipPath><path transform="translate(1,1)" d="m44 4c-13.212 0-24.911 6.3869-32.191 16.242l12.355 21.4a20 20 0 0 1 19.6-17.631 2.0002 2.0002 0 0 1 0.23633-0.011719h34.646c-6.9103-11.958-19.823-20-34.646-20zm-34.645 19.996c-3.4006 5.8834-5.3555 12.711-5.3555 20.004 0 20.602 15.522 37.53 35.525 39.75l12.336-21.365a20 20 0 0 1-7.8613 1.6152 20 20 0 0 1-17.145-9.7461 2.0003 2.0003 0 0 1-0.17578-0.25391l-17.324-30.004zm34.645 4.0039a16 16 0 0 0-16 16 16 16 0 0 0 16 16 16 16 0 0 0 16-16 16 16 0 0 0-16-16zm11.967 0a20 20 0 0 1 8.0332 16 20 20 0 0 1-2.5312 9.6914 2.0002 2.0002 0 0 1-0.14648 0.30859l-17.32 30c22.114-0.00106 39.998-17.886 39.998-40 0-5.6925-1.191-11.101-3.3281-16h-24.705z" style="paint-order:markers fill stroke;"/><text x="1" y="104" fill="#000000" font-size="5px" font-weight="bold" font-family="'Helvetica Neue', Helvetica, Arial-Unicode, Arial, Sans-serif">Created by Jan-Christoph Borchardt</text><text x="1" y="109" fill="#000000" font-size="5px" font-weight="bold" font-family="'Helvetica Neue', Helvetica, Arial-Unicode, Arial, Sans-serif">from the Noun Project</text></svg>