<svg xmlns="http://www.w3.org/2000/svg" data-name="Layer 1" viewBox="0 0 100 125" x="0px" y="0px"><title>Artboard 20</title><path d="M27.38,22.44A15.65,15.65,0,1,0,43,6.79,15.67,15.67,0,0,0,27.38,22.44ZM43,11.79A10.65,10.65,0,1,1,32.38,22.44,10.67,10.67,0,0,1,43,11.79ZM79.79,6.5a39.57,39.57,0,0,1-4.72,38.21,2.5,2.5,0,0,1-4-2.95A34.57,34.57,0,0,0,75.16,8.38a3.65,3.65,0,0,0-4.3-2.19,3.35,3.35,0,0,0-2.06,4.32L69,11a30.34,30.34,0,0,1,1.43,4.59,28,28,0,0,1-30.9,33.52A27.61,27.61,0,0,1,15.07,21.37a27.8,27.8,0,0,1,2.1-10.62,3.46,3.46,0,0,0-1.61-4.43A3.34,3.34,0,0,0,11,8.06a34.58,34.58,0,0,0,6.41,36.66,38,38,0,0,1,10,25.64V87H45.69a2.5,2.5,0,1,1,0,5H26.36a3.88,3.88,0,0,1-3.88-3.88V70.36a33,33,0,0,0-8.72-22.26,39.58,39.58,0,0,1-7.34-42A8.35,8.35,0,0,1,17.68,1.8a8.51,8.51,0,0,1,4.11,10.86,22.8,22.8,0,0,0-1.72,8.71A23,23,0,0,0,59.88,37a23,23,0,0,0,5.63-20.37,26.15,26.15,0,0,0-1.21-3.83l-.19-.52A8.35,8.35,0,0,1,69.22,1.46,8.61,8.61,0,0,1,79.79,6.5ZM72.24,50.22A24.39,24.39,0,1,0,96.63,74.61,24.42,24.42,0,0,0,72.24,50.22Zm0,43.78A19.39,19.39,0,1,1,91.63,74.61,19.41,19.41,0,0,1,72.24,94ZM82.3,67.79a2.5,2.5,0,0,1-.62,3.48A40.47,40.47,0,0,0,71.51,81.43a2.5,2.5,0,0,1-2.05,1.07h-.11a2.5,2.5,0,0,1-2.06-1.25A11.77,11.77,0,0,0,63,76.94a2.5,2.5,0,1,1,2.5-4.33,16.78,16.78,0,0,1,4,3.21,45.44,45.44,0,0,1,9.34-8.66A2.5,2.5,0,0,1,82.3,67.79Z"/><text x="0" y="115" fill="#000000" font-size="5px" font-weight="bold" font-family="'Helvetica Neue', Helvetica, Arial-Unicode, Arial, Sans-serif">Created by Gregor Cresnar</text><text x="0" y="120" fill="#000000" font-size="5px" font-weight="bold" font-family="'Helvetica Neue', Helvetica, Arial-Unicode, Arial, Sans-serif">from the Noun Project</text></svg>