<svg xmlns="http://www.w3.org/2000/svg" xmlns:xlink="http://www.w3.org/1999/xlink" version="1.1" x="0px" y="0px" viewBox="0 0 100 125" enable-background="new 0 0 100 100" xml:space="preserve"><g><path fill-rule="evenodd" clip-rule="evenodd" d="M50.476,29.717c0.991-0.87,2.113-1.857,3.567-1.999   c2.044-0.198,4.04,0.376,5.947,0.934c1.802,0.526,3.486,1.024,5.18,0.873c1.01-0.089,1.971-0.795,2.988-1.543   c0.971-0.714,1.969-1.442,3.133-1.743c-0.322-0.603-0.659-1.28-1.01-1.988c-1.316-2.657-3.084-6.213-5.104-7.354   c-2.941,0.019-5.793,0.042-8.586,0.065c0.201,1.036,0.55,2.73,1.871,5.27c0.24,0.462,0.061,1.031-0.401,1.271   c-0.139,0.072-0.288,0.107-0.435,0.107c-0.34,0-0.668-0.185-0.837-0.508c-1.478-2.842-1.845-4.73-2.063-5.858   c-0.019-0.093-0.037-0.181-0.054-0.266c-0.774,0.006-1.547,0.013-2.314,0.02c-7.472,0.066-15.198,0.135-23.888,0.147   c-0.001,0-0.008,0-0.009,0c-0.189,0-0.373-0.024-0.559-0.04c-1.644,2.721-4.92,4.729-8.124,6.68   c-3.65,2.223-7.102,4.325-7.827,7.157c1.056-0.21,3.04-1.191,4.813-2.07c2.735-1.354,5.568-2.72,7.399-2.8   c1.651-2.607,4.815-5.926,8.856-7.569c0.483-0.197,1.032,0.036,1.229,0.518c0.196,0.482-0.037,1.032-0.519,1.228   c-3.947,1.606-6.527,4.755-7.584,6.251c0.951,0.458,1.781,1.201,2.591,1.934c1.039,0.939,2.021,1.827,3.062,1.899   c1.403,0.096,2.783-0.604,4.258-1.349c1.523-0.768,3.097-1.563,4.857-1.563c0.105,0,0.21,0.003,0.316,0.009   c1.594,0.088,2.807,1.179,3.875,2.142c0.574,0.517,1.127,1.013,1.689,1.325c0.492-3.01,0.118-6.139-1.217-10.133   c-0.165-0.493,0.102-1.027,0.595-1.192c0.494-0.165,1.027,0.101,1.192,0.595c1.395,4.17,1.808,7.631,1.311,10.868   C49.27,30.771,49.861,30.257,50.476,29.717z"/><path fill-rule="evenodd" clip-rule="evenodd" d="M80.2,6.054c-0.634-0.714-1.44-1.077-2.396-1.077H27.957   c-1.167,0-2.133,0.404-2.953,1.235c-0.819,0.831-1.209,1.803-1.194,2.97c0.019,1.344,0.232,2.444,0.672,3.461   c0.708,1.639,2.195,2.617,3.98,2.617v0.014c0.002,0,0.003,0.001,0.005,0.001l0-0.016c8.684-0.012,16.406-0.081,23.875-0.147   c7.516-0.067,15.288-0.136,24.109-0.148c1.725-0.003,3.194-1.061,3.745-2.695c0.357-1.058,0.623-2.306,0.79-3.709   C81.1,7.612,80.836,6.77,80.2,6.054z"/><polygon fill-rule="evenodd" clip-rule="evenodd" points="47.894,32.04 47.889,32.041 47.894,32.168  "/><path fill-rule="evenodd" clip-rule="evenodd" d="M81.764,31.183C81.763,31.183,81.763,31.183,81.764,31.183   c-0.332,0-0.664-0.02-0.985-0.058c-1.665-0.197-3.03-0.955-4.35-1.688c-1.321-0.734-2.569-1.427-3.986-1.46   c-0.001,0-0.001,0-0.001,0c-1.097,0-2.102,0.74-3.167,1.523c-1.182,0.868-2.403,1.767-3.938,1.903   c-2.023,0.176-3.99-0.392-5.874-0.942c-1.822-0.532-3.524-1.032-5.235-0.868c-0.85,0.083-1.654,0.791-2.506,1.54   c-1.056,0.927-2.252,1.978-3.827,1.978c-0.007,0-0.069-0.001-0.076-0.001c-1.641-0.036-2.88-1.15-3.973-2.134   c-0.919-0.828-1.788-1.61-2.719-1.662c-1.398-0.08-2.76,0.617-4.221,1.354c-1.633,0.823-3.338,1.679-5.237,1.546   c-1.69-0.117-2.964-1.268-4.196-2.381c-1.051-0.95-2.043-1.848-3.092-1.895l-0.075-0.001c-1.132,0-3.265,0.95-5.29,1.931   c-1.722,3.282-2.505,7.467-2.087,12.794c0.815,10.383,6.598,28.242,9.424,38.026c2.436,8.436,9.922,13.111,18.654,14.028   c4.78,0.503,9.56,0.3,14.339,0C68.108,94.17,75.563,89.124,78,80.688c2.063-7.146,9.895-31.569,10.002-39.023   c0.063-4.372-1.123-7.996-3.221-10.983C83.816,30.996,82.789,31.183,81.764,31.183z"/><path fill-rule="evenodd" clip-rule="evenodd" d="M73.279,25.937c0.045,0.078,0.073,0.16,0.095,0.243   c1.482,0.236,2.745,0.929,3.97,1.608c1.214,0.674,2.36,1.312,3.657,1.464c0.248,0.029,0.504,0.044,0.762,0.044c0,0,0,0,0.001,0   c3.33,0,5.96-2.262,6.285-3.09c-0.058-0.014-0.137-0.029-0.245-0.038c-7.588-0.654-9.986-4.942-11.52-9.319   c-2.855,0.004-5.595,0.015-8.259,0.029c1.584,1.781,2.854,4.331,3.944,6.533C72.438,24.358,72.882,25.251,73.279,25.937z"/></g><text x="0" y="115" fill="#000000" font-size="5px" font-weight="bold" font-family="'Helvetica Neue', Helvetica, Arial-Unicode, Arial, Sans-serif">Created by Nikita Kozin</text><text x="0" y="120" fill="#000000" font-size="5px" font-weight="bold" font-family="'Helvetica Neue', Helvetica, Arial-Unicode, Arial, Sans-serif">from the Noun Project</text></svg>