<svg id="svg" xmlns="http://www.w3.org/2000/svg" xmlns:xlink="http://www.w3.org/1999/xlink" width="400" height="153.59116022099448" viewBox="0, 0, 400,153.59116022099448" version="1.1"><g id="svgg"><path id="path0" d="M263.465 36.374 C 263.515 73.837,263.514 73.907,263.022 74.514 C 262.689 74.925,249.534 75.041,249.047 74.637 C 248.889 74.505,248.833 73.731,248.833 71.646 C 248.833 69.056,248.807 68.807,248.500 68.500 C 248.002 68.002,231.725 67.975,231.276 68.471 C 231.038 68.734,230.999 69.257,230.995 72.263 C 230.986 79.725,230.480 81.009,227.118 82.098 L 225.653 82.573 224.785 82.271 C 223.111 81.688,222.603 81.282,221.899 79.966 L 221.250 78.750 221.198 69.404 C 221.151 60.745,221.168 60.040,221.432 59.820 C 221.673 59.621,223.805 59.577,234.984 59.541 C 248.249 59.499,248.250 59.499,248.542 59.148 C 249.163 58.400,248.861 45.401,248.176 43.434 C 247.988 42.894,247.748 41.956,247.643 41.351 C 247.257 39.129,244.987 35.584,242.708 33.640 C 241.361 32.492,239.449 31.261,238.460 30.906 C 238.117 30.783,237.510 30.491,237.112 30.258 C 236.713 30.024,236.264 29.833,236.113 29.833 C 235.962 29.833,235.181 29.616,234.377 29.349 C 230.027 27.909,220.242 27.907,215.973 29.347 C 215.179 29.614,214.392 29.835,214.223 29.836 C 214.055 29.838,213.542 30.061,213.083 30.333 C 212.625 30.605,212.090 30.829,211.894 30.830 C 211.698 30.832,211.171 31.085,210.723 31.393 C 210.275 31.702,209.740 32.007,209.534 32.072 C 209.128 32.201,205.500 35.698,205.500 35.961 C 205.500 36.049,205.280 36.398,205.011 36.736 C 204.743 37.074,204.471 37.590,204.407 37.884 C 204.344 38.177,204.112 38.774,203.892 39.210 C 203.672 39.647,203.377 40.622,203.236 41.377 C 203.095 42.132,202.854 43.125,202.699 43.583 C 202.447 44.336,202.416 45.875,202.380 59.407 C 202.345 72.569,202.310 74.429,202.087 74.651 C 201.729 75.009,195.183 74.942,194.902 74.577 C 194.794 74.439,194.676 73.042,194.614 71.178 C 194.505 67.914,194.139 66.308,193.091 64.500 C 192.958 64.271,192.703 63.821,192.525 63.500 C 192.029 62.610,189.174 60.003,188.392 59.727 C 188.222 59.667,187.858 59.452,187.583 59.249 C 187.308 59.047,186.746 58.712,186.333 58.505 C 185.921 58.297,185.467 58.026,185.325 57.902 C 185.183 57.777,184.747 57.563,184.356 57.425 C 183.965 57.287,183.453 57.022,183.217 56.837 C 182.982 56.652,182.482 56.418,182.105 56.317 C 181.728 56.215,181.211 55.983,180.955 55.801 C 180.700 55.619,180.211 55.394,179.870 55.301 C 178.943 55.048,173.742 52.590,173.580 52.329 C 173.529 52.245,173.171 52.022,172.785 51.833 C 168.627 49.797,167.106 47.416,167.092 42.918 L 167.085 40.750 167.695 39.583 C 169.084 36.929,171.135 36.184,173.891 37.333 C 176.011 38.217,176.476 39.380,176.617 44.167 C 176.676 46.138,176.788 47.445,176.929 47.792 L 177.150 48.333 184.621 48.333 C 192.924 48.333,192.630 48.373,193.012 47.214 C 193.553 45.574,192.663 37.310,191.850 36.428 C 191.675 36.239,191.423 35.819,191.290 35.497 C 191.014 34.824,188.996 32.883,187.719 32.060 C 187.244 31.754,186.812 31.434,186.759 31.348 C 186.706 31.262,186.270 31.063,185.790 30.905 C 185.310 30.747,184.743 30.483,184.532 30.318 C 184.320 30.154,183.720 29.936,183.198 29.833 C 182.677 29.731,181.725 29.466,181.083 29.245 C 180.383 29.003,178.985 28.737,177.583 28.579 C 176.300 28.434,174.650 28.245,173.917 28.159 C 172.307 27.970,169.975 27.968,168.500 28.154 C 167.904 28.229,166.404 28.415,165.167 28.568 C 163.927 28.721,162.393 29.027,161.750 29.249 C 161.108 29.470,160.133 29.730,159.583 29.827 C 159.033 29.923,158.374 30.156,158.119 30.344 C 157.863 30.532,157.352 30.792,156.983 30.923 C 156.289 31.167,155.713 31.553,154.748 32.417 C 154.441 32.692,154.054 33.038,153.887 33.186 C 152.789 34.162,151.570 36.109,151.329 37.271 C 151.228 37.757,150.991 38.589,150.802 39.119 C 150.153 40.945,150.109 48.747,150.740 50.250 C 150.893 50.617,151.164 51.456,151.341 52.115 C 151.518 52.774,151.851 53.590,152.081 53.930 C 152.312 54.269,152.501 54.630,152.503 54.732 C 152.508 55.085,154.497 56.999,155.944 58.045 C 156.296 58.299,156.921 58.751,157.333 59.051 C 157.746 59.351,158.325 59.695,158.619 59.816 C 158.914 59.937,159.245 60.143,159.354 60.274 C 159.462 60.406,159.913 60.668,160.354 60.858 C 160.795 61.048,161.239 61.303,161.341 61.426 C 161.443 61.548,161.889 61.769,162.333 61.917 C 162.778 62.064,163.229 62.290,163.336 62.420 C 163.443 62.549,163.955 62.813,164.474 63.006 C 164.992 63.200,165.529 63.459,165.667 63.582 C 165.804 63.705,166.254 63.936,166.667 64.095 C 167.079 64.254,167.569 64.520,167.755 64.686 C 167.941 64.853,168.414 65.102,168.807 65.241 C 169.200 65.379,169.709 65.640,169.938 65.820 C 170.167 66.000,170.631 66.236,170.969 66.344 C 171.307 66.453,171.733 66.677,171.917 66.843 C 172.100 67.009,172.598 67.293,173.023 67.475 C 173.449 67.657,173.848 67.888,173.910 67.989 C 173.973 68.090,174.375 68.352,174.803 68.572 C 177.413 69.905,178.244 74.816,176.739 80.011 C 176.215 81.820,172.308 82.987,170.198 81.965 C 167.979 80.890,167.512 79.429,167.357 73.067 C 167.248 68.656,167.213 68.424,166.583 67.961 C 166.492 67.894,163.102 67.837,159.051 67.836 L 151.685 67.833 151.218 68.236 L 150.750 68.639 150.750 71.500 C 150.750 74.139,150.725 74.378,150.426 74.597 C 149.978 74.925,135.469 74.952,135.207 74.625 C 135.114 74.510,134.915 73.863,134.762 73.186 C 134.610 72.509,134.372 71.684,134.233 71.353 C 134.094 71.021,133.868 70.113,133.732 69.333 C 133.595 68.554,133.370 67.743,133.231 67.530 C 133.091 67.318,132.867 66.613,132.731 65.964 C 132.596 65.315,132.301 64.470,132.076 64.086 C 131.851 63.702,131.667 63.195,131.667 62.961 C 131.667 62.726,131.451 62.123,131.186 61.621 C 130.922 61.119,130.611 60.417,130.496 60.062 C 130.380 59.707,130.071 59.012,129.809 58.518 C 129.548 58.024,129.333 57.528,129.333 57.416 C 129.333 57.305,129.136 56.923,128.896 56.568 C 128.655 56.214,128.353 55.624,128.224 55.258 C 128.094 54.892,127.848 54.441,127.677 54.255 C 127.506 54.069,127.242 53.618,127.091 53.252 C 126.941 52.887,126.678 52.437,126.508 52.252 C 126.338 52.068,126.083 51.635,125.941 51.292 C 125.800 50.948,125.601 50.667,125.500 50.667 C 125.399 50.667,125.214 50.423,125.090 50.125 C 124.965 49.827,124.632 49.292,124.348 48.935 C 124.065 48.579,123.833 48.230,123.833 48.160 C 123.833 48.089,123.590 47.732,123.292 47.366 C 122.994 47.000,122.450 46.269,122.083 45.742 C 121.717 45.215,121.229 44.575,121.000 44.319 C 120.771 44.062,120.283 43.509,119.917 43.090 C 119.257 42.335,118.051 41.033,116.514 39.417 C 115.668 38.526,113.577 36.557,112.647 35.775 C 112.337 35.514,111.821 35.079,111.500 34.809 C 109.961 33.511,107.069 31.362,105.813 30.583 C 105.518 30.400,104.895 30.010,104.430 29.716 C 103.099 28.877,99.937 27.117,98.563 26.451 C 98.093 26.223,97.658 25.955,97.596 25.854 C 97.534 25.753,97.057 25.547,96.537 25.396 C 96.017 25.245,95.402 24.986,95.171 24.821 C 94.939 24.656,94.414 24.433,94.003 24.327 C 93.592 24.220,92.917 23.963,92.503 23.756 C 92.089 23.549,91.337 23.284,90.833 23.167 C 90.329 23.050,89.654 22.824,89.333 22.664 C 89.013 22.503,88.188 22.256,87.500 22.115 C 86.813 21.973,85.878 21.698,85.424 21.503 C 84.969 21.308,83.807 21.039,82.840 20.904 C 81.874 20.769,80.558 20.508,79.917 20.324 C 79.108 20.092,77.831 19.939,75.750 19.824 C 74.100 19.733,71.783 19.590,70.601 19.505 C 69.292 19.412,67.499 19.412,66.017 19.505 C 64.679 19.590,62.225 19.735,60.565 19.827 C 58.395 19.948,57.247 20.089,56.481 20.329 C 55.896 20.512,54.592 20.783,53.583 20.930 C 52.575 21.077,51.426 21.338,51.030 21.511 C 50.634 21.684,49.715 21.938,48.989 22.076 C 48.262 22.213,47.386 22.468,47.042 22.642 C 46.698 22.816,45.967 23.086,45.417 23.242 C 44.867 23.398,44.257 23.628,44.063 23.753 C 43.868 23.878,43.234 24.103,42.653 24.254 C 42.072 24.404,41.390 24.674,41.137 24.854 C 40.885 25.034,40.311 25.290,39.862 25.424 C 39.413 25.557,38.867 25.802,38.648 25.969 C 38.429 26.135,37.895 26.403,37.460 26.565 C 37.026 26.727,36.625 26.933,36.570 27.022 C 36.515 27.111,36.082 27.370,35.610 27.597 C 35.137 27.823,34.262 28.302,33.667 28.661 C 33.071 29.020,32.246 29.508,31.833 29.746 C 31.421 29.985,30.821 30.359,30.500 30.579 C 30.179 30.799,29.554 31.228,29.110 31.531 C 28.666 31.835,27.991 32.324,27.610 32.619 C 27.229 32.913,26.597 33.400,26.206 33.702 C 25.492 34.253,24.463 35.082,23.280 36.058 C 22.455 36.739,17.018 42.134,16.583 42.703 C 16.231 43.164,13.627 46.412,12.708 47.536 C 12.410 47.900,12.167 48.256,12.167 48.326 C 12.167 48.397,11.935 48.746,11.652 49.102 C 11.368 49.458,11.035 49.994,10.910 50.292 C 10.786 50.590,10.604 50.833,10.506 50.833 C 10.409 50.833,10.137 51.227,9.903 51.708 C 9.280 52.987,8.592 54.235,8.212 54.776 C 8.029 55.037,7.790 55.525,7.681 55.862 C 7.572 56.198,7.377 56.561,7.248 56.669 C 7.118 56.776,6.867 57.251,6.689 57.724 C 6.511 58.196,6.172 58.921,5.935 59.333 C 5.698 59.746,5.503 60.204,5.502 60.352 C 5.501 60.499,5.287 61.024,5.026 61.518 C 4.765 62.012,4.462 62.780,4.353 63.224 C 4.244 63.668,4.050 64.193,3.922 64.390 C 3.794 64.588,3.537 65.355,3.349 66.095 C 3.162 66.834,2.899 67.700,2.766 68.019 C 2.633 68.338,2.400 69.233,2.249 70.008 C 2.098 70.783,1.829 71.850,1.653 72.379 C 1.476 72.909,1.178 74.665,0.992 76.282 C 0.630 79.414,0.610 79.500,0.240 79.500 C -0.136 79.500,-0.118 91.627,0.259 91.903 C 0.613 92.161,0.776 93.007,1.002 95.744 C 1.108 97.024,1.369 98.749,1.583 99.577 C 1.796 100.405,2.095 101.753,2.246 102.571 C 2.398 103.389,2.630 104.267,2.762 104.523 C 2.894 104.778,3.113 105.517,3.249 106.164 C 3.386 106.811,3.644 107.629,3.824 107.981 C 4.004 108.334,4.239 108.988,4.346 109.436 C 4.453 109.884,4.710 110.550,4.916 110.917 C 5.123 111.283,5.413 112.005,5.561 112.520 C 5.709 113.035,5.939 113.547,6.073 113.658 C 6.206 113.768,6.436 114.224,6.584 114.670 C 6.733 115.116,6.988 115.654,7.152 115.866 C 7.317 116.077,7.579 116.638,7.735 117.112 C 7.891 117.586,8.131 118.068,8.269 118.182 C 8.407 118.297,8.627 118.649,8.759 118.965 C 9.006 119.556,9.454 120.310,10.541 121.965 C 10.885 122.489,11.166 122.987,11.166 123.073 C 11.166 123.158,11.312 123.383,11.489 123.573 C 11.844 123.951,12.417 124.724,13.103 125.750 C 13.726 126.682,13.953 126.961,16.896 130.417 C 18.828 132.684,23.878 137.567,24.807 138.065 C 24.959 138.146,25.282 138.408,25.526 138.648 C 25.769 138.887,26.257 139.293,26.609 139.550 C 26.962 139.806,27.579 140.256,27.981 140.550 C 29.021 141.309,30.295 142.162,31.448 142.871 C 31.706 143.030,32.517 143.535,33.250 143.994 C 33.983 144.454,34.671 144.830,34.779 144.831 C 34.886 144.832,35.186 145.010,35.446 145.226 C 35.705 145.442,36.186 145.706,36.515 145.813 C 36.844 145.920,37.365 146.194,37.672 146.421 C 37.980 146.648,38.323 146.833,38.435 146.833 C 38.547 146.833,39.134 147.096,39.739 147.417 C 40.343 147.737,40.942 148.000,41.069 148.000 C 41.196 148.000,41.713 148.217,42.217 148.483 C 42.722 148.748,43.519 149.048,43.988 149.148 C 44.457 149.249,45.195 149.511,45.629 149.730 C 46.062 149.949,46.853 150.218,47.385 150.328 C 47.918 150.438,48.668 150.666,49.052 150.834 C 49.436 151.003,50.237 151.225,50.833 151.328 C 51.429 151.431,52.554 151.698,53.333 151.922 C 54.112 152.145,55.855 152.443,57.205 152.584 C 59.704 152.844,60.500 153.024,60.500 153.329 C 60.500 153.611,76.113 153.561,76.283 153.279 C 76.498 152.924,76.932 152.830,79.513 152.582 C 81.135 152.426,82.369 152.209,83.186 151.936 C 83.863 151.710,84.934 151.440,85.566 151.336 C 86.199 151.233,86.986 151.011,87.316 150.843 C 87.646 150.676,88.367 150.447,88.917 150.336 C 89.467 150.225,90.404 149.924,91.000 149.668 C 91.596 149.412,92.333 149.149,92.639 149.085 C 92.945 149.020,93.609 148.750,94.114 148.484 C 94.620 148.218,95.135 148.000,95.259 148.000 C 95.460 148.000,97.240 147.172,98.333 146.570 C 98.563 146.443,99.210 146.121,99.772 145.853 C 100.334 145.584,100.842 145.288,100.899 145.195 C 100.957 145.101,101.285 144.933,101.627 144.822 C 101.970 144.710,102.488 144.412,102.779 144.159 C 103.070 143.906,103.531 143.650,103.804 143.590 C 104.076 143.530,104.438 143.327,104.608 143.139 C 104.778 142.952,105.179 142.654,105.500 142.478 C 105.821 142.302,106.533 141.825,107.083 141.419 C 107.633 141.012,108.271 140.549,108.500 140.389 C 108.729 140.229,109.158 139.907,109.454 139.674 C 109.750 139.441,110.334 138.987,110.752 138.667 C 113.461 136.591,119.430 130.834,120.473 129.291 C 120.612 129.085,120.956 128.648,121.238 128.320 C 122.126 127.284,123.422 125.541,124.042 124.550 C 124.448 123.900,125.087 123.001,125.524 122.463 C 125.727 122.214,125.991 121.775,126.112 121.489 C 126.232 121.202,126.519 120.744,126.749 120.471 C 126.979 120.198,127.167 119.882,127.167 119.770 C 127.167 119.657,127.383 119.224,127.648 118.806 C 127.913 118.389,128.186 117.869,128.255 117.651 C 128.324 117.433,128.553 116.991,128.763 116.669 C 128.973 116.347,129.275 115.746,129.433 115.333 C 129.592 114.921,129.852 114.395,130.010 114.165 C 130.169 113.935,130.382 113.439,130.483 113.062 C 130.585 112.685,130.816 112.188,130.998 111.957 C 131.180 111.726,131.435 111.080,131.565 110.521 C 131.696 109.963,131.951 109.261,132.133 108.961 C 132.315 108.662,132.547 108.017,132.649 107.530 C 132.751 107.042,133.015 106.254,133.236 105.780 C 133.456 105.305,133.690 104.510,133.754 104.013 C 133.819 103.517,134.054 102.579,134.275 101.930 C 134.497 101.281,134.724 100.313,134.781 99.779 C 134.838 99.238,135.013 98.648,135.177 98.446 L 135.471 98.083 245.813 98.083 C 346.755 98.083,356.177 98.106,356.422 98.350 C 356.660 98.588,356.692 99.719,356.719 108.879 C 356.750 119.033,356.754 119.147,357.101 119.613 L 357.453 120.083 371.126 120.126 C 378.646 120.149,385.088 120.110,385.441 120.038 C 386.701 119.781,386.666 120.103,386.666 108.740 C 386.667 100.363,386.705 98.678,386.903 98.407 C 387.127 98.100,387.448 98.079,393.278 97.996 C 396.654 97.949,399.548 97.847,399.708 97.770 C 399.982 97.640,400.000 96.933,400.000 86.425 L 400.000 75.219 399.292 75.007 C 398.771 74.851,397.103 74.802,392.979 74.822 C 388.010 74.846,387.343 74.819,387.103 74.580 C 386.955 74.431,386.815 74.296,386.793 74.280 C 386.771 74.263,386.715 60.885,386.668 44.550 C 386.599 20.494,386.542 14.809,386.367 14.633 C 386.193 14.460,383.299 14.408,371.765 14.372 L 357.381 14.328 356.203 15.622 C 355.556 16.334,354.664 17.367,354.222 17.917 C 353.437 18.894,350.616 22.238,349.707 23.268 C 348.994 24.077,346.952 26.514,345.255 28.583 C 344.495 29.510,343.419 30.764,343.032 31.175 C 342.820 31.400,342.370 31.926,342.032 32.345 C 340.677 34.024,340.165 34.639,338.083 37.094 C 331.780 44.527,329.025 47.800,327.531 49.632 C 327.285 49.934,326.821 50.472,326.500 50.827 C 326.179 51.182,325.715 51.723,325.468 52.028 C 325.221 52.333,324.449 53.258,323.752 54.083 C 323.056 54.908,322.300 55.808,322.073 56.083 C 321.691 56.546,318.120 60.775,316.654 62.500 C 316.303 62.913,315.057 64.386,313.883 65.776 C 312.710 67.165,310.775 69.447,309.583 70.847 C 308.392 72.247,307.324 73.560,307.211 73.765 C 306.627 74.820,306.530 74.833,299.201 74.833 C 291.981 74.833,292.004 74.836,291.997 73.946 C 291.996 73.747,291.977 57.046,291.956 36.833 L 291.917 0.083 277.667 0.041 L 263.417 -0.002 263.465 36.374 M227.313 39.143 C 227.530 39.293,227.895 39.541,228.122 39.692 C 229.497 40.606,229.821 42.268,229.828 48.433 C 229.835 53.962,230.325 53.399,225.437 53.472 C 220.664 53.543,221.173 54.173,221.147 48.154 C 221.119 41.455,221.296 40.644,223.046 39.427 C 224.164 38.649,226.386 38.501,227.313 39.143 M356.754 43.879 C 356.810 44.180,356.832 51.086,356.803 59.227 L 356.750 74.030 356.371 74.337 C 356.162 74.506,355.600 74.691,355.121 74.749 C 353.992 74.885,332.395 74.784,332.253 74.642 C 332.033 74.422,332.511 73.226,333.121 72.474 C 333.467 72.046,334.035 71.334,334.382 70.890 C 334.730 70.446,335.201 69.858,335.429 69.583 C 336.080 68.797,337.030 67.589,337.667 66.739 C 337.987 66.310,338.530 65.612,338.873 65.188 C 339.216 64.764,339.647 64.229,339.831 64.000 C 340.016 63.771,340.377 63.321,340.635 63.000 C 340.893 62.679,341.283 62.154,341.500 61.833 C 341.717 61.512,342.088 61.016,342.323 60.730 C 343.500 59.298,344.529 57.999,345.417 56.823 C 345.783 56.338,346.234 55.782,346.417 55.587 C 346.601 55.393,346.882 55.034,347.042 54.790 C 347.202 54.545,347.489 54.174,347.679 53.964 C 347.869 53.755,348.283 53.246,348.600 52.833 C 349.657 51.454,350.409 50.504,351.417 49.271 C 351.967 48.599,352.754 47.574,353.167 46.995 C 355.485 43.736,356.553 42.809,356.754 43.879 M45.300 70.597 C 47.059 70.800,47.839 70.972,48.695 71.347 C 49.306 71.614,49.914 71.833,50.046 71.833 C 50.179 71.833,50.562 72.020,50.898 72.248 C 51.234 72.476,51.751 72.785,52.046 72.933 C 53.594 73.713,57.161 77.721,57.590 79.163 C 57.658 79.391,57.852 79.766,58.021 79.997 C 58.285 80.359,58.627 81.483,59.362 84.417 C 59.634 85.502,59.430 88.937,59.035 89.917 C 58.851 90.375,58.647 91.103,58.582 91.533 C 58.518 91.964,58.287 92.557,58.070 92.852 C 57.853 93.146,57.589 93.656,57.484 93.985 C 57.378 94.314,57.166 94.733,57.012 94.917 C 56.858 95.100,56.539 95.550,56.303 95.917 C 55.712 96.836,53.379 99.130,52.656 99.503 C 52.329 99.671,51.970 99.919,51.858 100.053 C 51.747 100.188,51.414 100.397,51.119 100.518 C 50.825 100.639,50.339 100.902,50.041 101.103 C 49.743 101.304,49.115 101.522,48.646 101.586 C 48.176 101.651,47.477 101.843,47.092 102.014 C 45.283 102.814,41.527 102.774,38.953 101.927 C 38.240 101.692,37.561 101.500,37.444 101.500 C 37.327 101.500,36.980 101.314,36.672 101.087 C 36.365 100.860,35.844 100.587,35.515 100.480 C 35.186 100.373,34.670 100.071,34.369 99.809 C 34.068 99.548,33.762 99.333,33.689 99.333 C 33.345 99.333,29.833 95.630,29.833 95.267 C 29.833 95.145,29.608 94.763,29.333 94.417 C 29.058 94.071,28.833 93.672,28.833 93.532 C 28.833 93.391,28.611 92.820,28.340 92.263 C 27.982 91.529,27.797 90.818,27.669 89.685 C 27.571 88.825,27.451 88.055,27.401 87.975 C 26.963 87.266,27.654 81.831,28.346 80.532 C 28.614 80.030,28.833 79.531,28.833 79.423 C 28.833 79.315,29.056 78.931,29.329 78.571 C 29.601 78.211,29.826 77.827,29.829 77.718 C 29.845 77.030,33.355 73.588,34.783 72.859 C 35.165 72.664,35.523 72.431,35.579 72.340 C 35.635 72.249,36.041 72.068,36.481 71.938 C 36.921 71.807,37.600 71.537,37.990 71.338 C 38.592 71.031,40.055 70.725,42.250 70.447 C 42.525 70.412,42.810 70.372,42.883 70.358 C 42.956 70.345,44.044 70.452,45.300 70.597 " stroke="none" fill="#94cc54" fill-rule="evenodd"></path><path id="path1" d="M-0.000 39.750 C -0.000 74.249,0.032 79.500,0.240 79.500 C 0.610 79.500,0.630 79.414,0.992 76.282 C 1.178 74.665,1.476 72.909,1.653 72.379 C 1.829 71.850,2.098 70.783,2.249 70.008 C 2.400 69.233,2.633 68.338,2.766 68.019 C 2.899 67.700,3.162 66.834,3.349 66.095 C 3.537 65.355,3.794 64.588,3.922 64.390 C 4.050 64.193,4.244 63.668,4.353 63.224 C 4.462 62.780,4.765 62.012,5.026 61.518 C 5.287 61.024,5.501 60.499,5.502 60.352 C 5.503 60.204,5.698 59.746,5.935 59.333 C 6.172 58.921,6.511 58.196,6.689 57.724 C 6.867 57.251,7.118 56.776,7.248 56.669 C 7.377 56.561,7.572 56.198,7.681 55.862 C 7.790 55.525,8.029 55.037,8.212 54.776 C 8.592 54.235,9.280 52.987,9.903 51.708 C 10.137 51.227,10.409 50.833,10.506 50.833 C 10.604 50.833,10.786 50.590,10.910 50.292 C 11.035 49.994,11.368 49.458,11.652 49.102 C 11.935 48.746,12.167 48.397,12.167 48.326 C 12.167 48.256,12.410 47.900,12.708 47.536 C 13.627 46.412,16.231 43.164,16.583 42.703 C 17.018 42.134,22.455 36.739,23.280 36.058 C 24.463 35.082,25.492 34.253,26.206 33.702 C 26.597 33.400,27.229 32.913,27.610 32.619 C 27.991 32.324,28.666 31.835,29.110 31.531 C 29.554 31.228,30.179 30.799,30.500 30.579 C 30.821 30.359,31.421 29.985,31.833 29.746 C 32.246 29.508,33.071 29.020,33.667 28.661 C 34.262 28.302,35.137 27.823,35.610 27.597 C 36.082 27.370,36.515 27.111,36.570 27.022 C 36.625 26.933,37.026 26.727,37.460 26.565 C 37.895 26.403,38.429 26.135,38.648 25.969 C 38.867 25.802,39.413 25.557,39.862 25.424 C 40.311 25.290,40.885 25.034,41.137 24.854 C 41.390 24.674,42.072 24.404,42.653 24.254 C 43.234 24.103,43.868 23.878,44.063 23.753 C 44.257 23.628,44.867 23.398,45.417 23.242 C 45.967 23.086,46.698 22.816,47.042 22.642 C 47.386 22.468,48.262 22.213,48.989 22.076 C 49.715 21.938,50.634 21.684,51.030 21.511 C 51.426 21.338,52.575 21.077,53.583 20.930 C 54.592 20.783,55.896 20.512,56.481 20.329 C 57.247 20.089,58.395 19.948,60.565 19.827 C 62.225 19.735,64.679 19.590,66.017 19.505 C 67.499 19.412,69.292 19.412,70.601 19.505 C 71.783 19.590,74.100 19.733,75.750 19.824 C 77.831 19.939,79.108 20.092,79.917 20.324 C 80.558 20.508,81.874 20.769,82.840 20.904 C 83.807 21.039,84.969 21.308,85.424 21.503 C 85.878 21.698,86.813 21.973,87.500 22.115 C 88.188 22.256,89.013 22.503,89.333 22.664 C 89.654 22.824,90.329 23.050,90.833 23.167 C 91.337 23.284,92.089 23.549,92.503 23.756 C 92.917 23.963,93.592 24.220,94.003 24.327 C 94.414 24.433,94.939 24.656,95.171 24.821 C 95.402 24.986,96.017 25.245,96.537 25.396 C 97.057 25.547,97.534 25.753,97.596 25.854 C 97.658 25.955,98.093 26.223,98.563 26.451 C 99.937 27.117,103.099 28.877,104.430 29.716 C 104.895 30.010,105.518 30.400,105.813 30.583 C 107.069 31.362,109.961 33.511,111.500 34.809 C 111.821 35.079,112.337 35.514,112.647 35.775 C 113.577 36.557,115.668 38.526,116.514 39.417 C 118.051 41.033,119.257 42.335,119.917 43.090 C 120.283 43.509,120.771 44.062,121.000 44.319 C 121.229 44.575,121.717 45.215,122.083 45.742 C 122.450 46.269,122.994 47.000,123.292 47.366 C 123.590 47.732,123.833 48.089,123.833 48.160 C 123.833 48.230,124.065 48.579,124.348 48.935 C 124.632 49.292,124.965 49.827,125.090 50.125 C 125.214 50.423,125.399 50.667,125.500 50.667 C 125.601 50.667,125.800 50.948,125.941 51.292 C 126.083 51.635,126.338 52.068,126.508 52.252 C 126.678 52.437,126.941 52.887,127.091 53.252 C 127.242 53.618,127.506 54.069,127.677 54.255 C 127.848 54.441,128.094 54.892,128.224 55.258 C 128.353 55.624,128.655 56.214,128.896 56.568 C 129.136 56.923,129.333 57.305,129.333 57.416 C 129.333 57.528,129.548 58.024,129.809 58.518 C 130.071 59.012,130.380 59.707,130.496 60.062 C 130.611 60.417,130.922 61.119,131.186 61.621 C 131.451 62.123,131.667 62.726,131.667 62.961 C 131.667 63.195,131.851 63.702,132.076 64.086 C 132.301 64.470,132.596 65.315,132.731 65.964 C 132.867 66.613,133.091 67.318,133.231 67.530 C 133.370 67.743,133.595 68.554,133.732 69.333 C 133.868 70.113,134.094 71.021,134.233 71.353 C 134.372 71.684,134.610 72.509,134.762 73.186 C 134.915 73.863,135.114 74.510,135.207 74.625 C 135.469 74.952,149.978 74.925,150.426 74.597 C 150.725 74.378,150.750 74.139,150.750 71.500 L 150.750 68.639 151.218 68.236 L 151.685 67.833 159.051 67.836 C 163.102 67.837,166.492 67.894,166.583 67.961 C 167.213 68.424,167.248 68.656,167.357 73.067 C 167.512 79.429,167.979 80.890,170.198 81.965 C 172.308 82.987,176.215 81.820,176.739 80.011 C 178.244 74.816,177.413 69.905,174.803 68.572 C 174.375 68.352,173.973 68.090,173.910 67.989 C 173.848 67.888,173.449 67.657,173.023 67.475 C 172.598 67.293,172.100 67.009,171.917 66.843 C 171.733 66.677,171.307 66.453,170.969 66.344 C 170.631 66.236,170.167 66.000,169.938 65.820 C 169.709 65.640,169.200 65.379,168.807 65.241 C 168.414 65.102,167.941 64.853,167.755 64.686 C 167.569 64.520,167.079 64.254,166.667 64.095 C 166.254 63.936,165.804 63.705,165.667 63.582 C 165.529 63.459,164.992 63.200,164.474 63.006 C 163.955 62.813,163.443 62.549,163.336 62.420 C 163.229 62.290,162.778 62.064,162.333 61.917 C 161.889 61.769,161.443 61.548,161.341 61.426 C 161.239 61.303,160.795 61.048,160.354 60.858 C 159.913 60.668,159.462 60.406,159.354 60.274 C 159.245 60.143,158.914 59.937,158.619 59.816 C 158.325 59.695,157.746 59.351,157.333 59.051 C 156.921 58.751,156.296 58.299,155.944 58.045 C 154.497 56.999,152.508 55.085,152.503 54.732 C 152.501 54.630,152.312 54.269,152.081 53.930 C 151.851 53.590,151.518 52.774,151.341 52.115 C 151.164 51.456,150.893 50.617,150.740 50.250 C 150.109 48.747,150.153 40.945,150.802 39.119 C 150.991 38.589,151.228 37.757,151.329 37.271 C 151.570 36.109,152.789 34.162,153.887 33.186 C 154.054 33.038,154.441 32.692,154.748 32.417 C 155.713 31.553,156.289 31.167,156.983 30.923 C 157.352 30.792,157.863 30.532,158.119 30.344 C 158.374 30.156,159.033 29.923,159.583 29.827 C 160.133 29.730,161.108 29.470,161.750 29.249 C 162.393 29.027,163.927 28.721,165.167 28.568 C 166.404 28.415,167.904 28.229,168.500 28.154 C 169.975 27.968,172.307 27.970,173.917 28.159 C 174.650 28.245,176.300 28.434,177.583 28.579 C 178.985 28.737,180.383 29.003,181.083 29.245 C 181.725 29.466,182.677 29.731,183.198 29.833 C 183.720 29.936,184.320 30.154,184.532 30.318 C 184.743 30.483,185.310 30.747,185.790 30.905 C 186.270 31.063,186.706 31.262,186.759 31.348 C 186.812 31.434,187.244 31.754,187.719 32.060 C 188.996 32.883,191.014 34.824,191.290 35.497 C 191.423 35.819,191.675 36.239,191.850 36.428 C 192.663 37.310,193.553 45.574,193.012 47.214 C 192.630 48.373,192.924 48.333,184.621 48.333 L 177.150 48.333 176.929 47.792 C 176.788 47.445,176.676 46.138,176.617 44.167 C 176.476 39.380,176.011 38.217,173.891 37.333 C 171.135 36.184,169.084 36.929,167.695 39.583 L 167.085 40.750 167.092 42.918 C 167.106 47.416,168.627 49.797,172.785 51.833 C 173.171 52.022,173.529 52.245,173.580 52.329 C 173.742 52.590,178.943 55.048,179.870 55.301 C 180.211 55.394,180.700 55.619,180.955 55.801 C 181.211 55.983,181.728 56.215,182.105 56.317 C 182.482 56.418,182.982 56.652,183.217 56.837 C 183.453 57.022,183.965 57.287,184.356 57.425 C 184.747 57.563,185.183 57.777,185.325 57.902 C 185.467 58.026,185.921 58.297,186.333 58.505 C 186.746 58.712,187.308 59.047,187.583 59.249 C 187.858 59.452,188.222 59.667,188.392 59.727 C 189.174 60.003,192.029 62.610,192.525 63.500 C 192.703 63.821,192.958 64.271,193.091 64.500 C 194.139 66.308,194.505 67.914,194.614 71.178 C 194.676 73.042,194.794 74.439,194.902 74.577 C 195.183 74.942,201.729 75.009,202.087 74.651 C 202.310 74.429,202.345 72.569,202.380 59.407 C 202.416 45.875,202.447 44.336,202.699 43.583 C 202.854 43.125,203.095 42.132,203.236 41.377 C 203.377 40.622,203.672 39.647,203.892 39.210 C 204.112 38.774,204.344 38.177,204.407 37.884 C 204.471 37.590,204.743 37.074,205.011 36.736 C 205.280 36.398,205.500 36.049,205.500 35.961 C 205.500 35.698,209.128 32.201,209.534 32.072 C 209.740 32.007,210.275 31.702,210.723 31.393 C 211.171 31.085,211.698 30.832,211.894 30.830 C 212.090 30.829,212.625 30.605,213.083 30.333 C 213.542 30.061,214.055 29.838,214.223 29.836 C 214.392 29.835,215.179 29.614,215.973 29.347 C 220.242 27.907,230.027 27.909,234.377 29.349 C 235.181 29.616,235.962 29.833,236.113 29.833 C 236.264 29.833,236.713 30.024,237.112 30.258 C 237.510 30.491,238.117 30.783,238.460 30.906 C 239.449 31.261,241.361 32.492,242.708 33.640 C 244.987 35.584,247.257 39.129,247.643 41.351 C 247.748 41.956,247.988 42.894,248.176 43.434 C 248.861 45.401,249.163 58.400,248.542 59.148 C 248.250 59.499,248.249 59.499,234.984 59.541 C 223.805 59.577,221.673 59.621,221.432 59.820 C 221.168 60.040,221.151 60.745,221.198 69.404 L 221.250 78.750 221.899 79.966 C 222.603 81.282,223.111 81.688,224.785 82.271 L 225.653 82.573 227.118 82.098 C 230.483 81.008,230.986 79.729,230.995 72.234 C 231.000 69.043,231.028 68.693,231.305 68.442 C 231.824 67.973,248.027 68.027,248.500 68.500 C 248.807 68.807,248.833 69.056,248.833 71.646 C 248.833 73.731,248.889 74.505,249.047 74.637 C 249.534 75.041,262.689 74.925,263.022 74.514 C 263.514 73.907,263.514 73.843,263.465 36.417 L 263.417 0.083 131.708 0.042 L -0.000 -0.000 -0.000 39.750 M291.956 36.792 C 291.977 57.027,291.996 73.747,291.997 73.946 C 292.004 74.836,291.981 74.833,299.201 74.833 C 306.530 74.833,306.627 74.820,307.211 73.765 C 307.324 73.560,308.392 72.247,309.583 70.847 C 310.775 69.447,312.710 67.165,313.883 65.776 C 315.057 64.386,316.303 62.913,316.654 62.500 C 318.120 60.775,321.691 56.546,322.073 56.083 C 322.300 55.808,323.056 54.908,323.752 54.083 C 324.449 53.258,325.221 52.333,325.468 52.028 C 325.715 51.723,326.179 51.182,326.500 50.827 C 326.821 50.472,327.285 49.934,327.531 49.632 C 329.025 47.800,331.780 44.527,338.083 37.094 C 340.165 34.639,340.677 34.024,342.032 32.345 C 342.370 31.926,342.820 31.400,343.032 31.175 C 343.419 30.764,344.495 29.510,345.255 28.583 C 346.952 26.514,348.994 24.077,349.707 23.268 C 350.616 22.238,353.437 18.894,354.222 17.917 C 354.664 17.367,355.556 16.334,356.203 15.622 L 357.381 14.328 371.765 14.372 C 383.299 14.408,386.193 14.460,386.367 14.633 C 386.542 14.809,386.599 20.494,386.668 44.550 C 386.715 60.885,386.771 74.263,386.793 74.280 C 386.815 74.296,386.955 74.431,387.103 74.579 C 387.342 74.818,388.024 74.846,393.061 74.826 C 396.830 74.810,398.908 74.864,399.219 74.985 C 399.477 75.085,399.758 75.167,399.844 75.167 C 399.940 75.167,400.000 60.783,400.000 37.583 L 400.000 0.000 345.958 0.000 L 291.917 0.000 291.956 36.792 M224.417 38.820 C 221.652 39.308,221.117 40.837,221.147 48.154 C 221.173 54.173,220.664 53.543,225.437 53.472 C 230.325 53.399,229.835 53.962,229.828 48.433 C 229.821 42.268,229.497 40.606,228.122 39.692 C 227.895 39.541,227.530 39.293,227.313 39.143 C 226.845 38.819,225.358 38.653,224.417 38.820 M355.627 43.960 C 354.882 44.705,354.180 45.571,353.167 46.995 C 352.754 47.574,351.967 48.599,351.417 49.271 C 350.409 50.504,349.657 51.454,348.600 52.833 C 348.283 53.246,347.869 53.755,347.679 53.964 C 347.489 54.174,347.202 54.545,347.042 54.790 C 346.882 55.034,346.601 55.393,346.417 55.587 C 346.234 55.782,345.783 56.338,345.417 56.823 C 344.529 57.999,343.500 59.298,342.323 60.730 C 342.088 61.016,341.717 61.512,341.500 61.833 C 341.283 62.154,340.893 62.679,340.635 63.000 C 340.377 63.321,340.016 63.771,339.831 64.000 C 339.647 64.229,339.216 64.764,338.873 65.188 C 338.530 65.612,337.987 66.310,337.667 66.739 C 337.030 67.589,336.080 68.797,335.429 69.583 C 335.201 69.858,334.730 70.446,334.382 70.890 C 334.035 71.334,333.467 72.046,333.121 72.474 C 332.511 73.226,332.033 74.422,332.253 74.642 C 332.395 74.784,353.992 74.885,355.121 74.749 C 355.600 74.691,356.162 74.506,356.371 74.337 L 356.750 74.030 356.803 59.227 C 356.866 41.795,356.932 42.653,355.627 43.960 M42.250 70.447 C 40.055 70.725,38.592 71.031,37.990 71.338 C 37.600 71.537,36.921 71.807,36.481 71.938 C 36.041 72.068,35.635 72.249,35.579 72.340 C 35.523 72.431,35.165 72.664,34.783 72.859 C 33.355 73.588,29.845 77.030,29.829 77.718 C 29.826 77.827,29.601 78.211,29.329 78.571 C 29.056 78.931,28.833 79.315,28.833 79.423 C 28.833 79.531,28.614 80.030,28.346 80.532 C 27.654 81.831,26.963 87.266,27.401 87.975 C 27.451 88.055,27.571 88.825,27.669 89.685 C 27.797 90.818,27.982 91.529,28.340 92.263 C 28.611 92.820,28.833 93.391,28.833 93.532 C 28.833 93.672,29.058 94.071,29.333 94.417 C 29.608 94.763,29.833 95.145,29.833 95.267 C 29.833 95.630,33.345 99.333,33.689 99.333 C 33.762 99.333,34.068 99.548,34.369 99.809 C 34.670 100.071,35.186 100.373,35.515 100.480 C 35.844 100.587,36.365 100.860,36.672 101.087 C 36.980 101.314,37.327 101.500,37.444 101.500 C 37.561 101.500,38.240 101.692,38.953 101.927 C 41.527 102.774,45.283 102.814,47.092 102.014 C 47.477 101.843,48.176 101.651,48.646 101.586 C 49.115 101.522,49.743 101.304,50.041 101.103 C 50.339 100.902,50.825 100.639,51.119 100.518 C 51.414 100.397,51.747 100.188,51.858 100.053 C 51.970 99.919,52.329 99.671,52.656 99.503 C 53.379 99.130,55.712 96.836,56.303 95.917 C 56.539 95.550,56.858 95.100,57.012 94.917 C 57.166 94.733,57.378 94.314,57.484 93.985 C 57.589 93.656,57.853 93.146,58.070 92.852 C 58.287 92.557,58.518 91.964,58.582 91.533 C 58.647 91.103,58.851 90.375,59.035 89.917 C 59.430 88.937,59.634 85.502,59.362 84.417 C 58.627 81.483,58.285 80.359,58.021 79.997 C 57.852 79.766,57.658 79.391,57.590 79.163 C 57.161 77.721,53.594 73.713,52.046 72.933 C 51.751 72.785,51.234 72.476,50.898 72.248 C 50.562 72.020,50.179 71.833,50.046 71.833 C 49.914 71.833,49.306 71.614,48.695 71.347 C 47.733 70.926,43.602 70.223,42.883 70.358 C 42.810 70.372,42.525 70.412,42.250 70.447 M0.000 122.667 L 0.000 153.500 30.250 153.500 C 50.793 153.500,60.500 153.445,60.500 153.329 C 60.500 153.024,59.704 152.844,57.205 152.584 C 55.855 152.443,54.112 152.145,53.333 151.922 C 52.554 151.698,51.429 151.431,50.833 151.328 C 50.237 151.225,49.436 151.003,49.052 150.834 C 48.668 150.666,47.918 150.438,47.385 150.328 C 46.853 150.218,46.062 149.949,45.629 149.730 C 45.195 149.511,44.457 149.249,43.988 149.148 C 43.519 149.048,42.722 148.748,42.217 148.483 C 41.713 148.217,41.196 148.000,41.069 148.000 C 40.942 148.000,40.343 147.737,39.739 147.417 C 39.134 147.096,38.547 146.833,38.435 146.833 C 38.323 146.833,37.980 146.648,37.672 146.421 C 37.365 146.194,36.844 145.920,36.515 145.813 C 36.186 145.706,35.705 145.442,35.446 145.226 C 35.186 145.010,34.886 144.832,34.779 144.831 C 34.610 144.830,33.465 144.153,31.540 142.917 C 31.254 142.733,30.810 142.452,30.552 142.292 C 29.814 141.834,28.776 141.131,27.981 140.550 C 27.579 140.256,26.962 139.806,26.609 139.550 C 26.257 139.293,25.769 138.887,25.526 138.648 C 25.282 138.408,24.959 138.146,24.807 138.065 C 23.878 137.567,18.828 132.684,16.896 130.417 C 13.953 126.961,13.726 126.682,13.103 125.750 C 12.417 124.724,11.844 123.951,11.489 123.573 C 11.312 123.383,11.166 123.158,11.166 123.073 C 11.166 122.987,10.885 122.489,10.541 121.965 C 9.454 120.310,9.006 119.556,8.759 118.965 C 8.627 118.649,8.407 118.297,8.269 118.182 C 8.131 118.068,7.891 117.586,7.735 117.112 C 7.579 116.638,7.317 116.077,7.152 115.866 C 6.988 115.654,6.733 115.116,6.584 114.670 C 6.436 114.224,6.206 113.768,6.073 113.658 C 5.939 113.547,5.709 113.035,5.561 112.520 C 5.413 112.005,5.123 111.283,4.916 110.917 C 4.710 110.550,4.453 109.884,4.346 109.436 C 4.239 108.988,4.004 108.334,3.824 107.981 C 3.644 107.629,3.386 106.811,3.249 106.164 C 3.113 105.517,2.894 104.778,2.762 104.523 C 2.630 104.267,2.398 103.389,2.246 102.571 C 2.095 101.753,1.797 100.408,1.586 99.583 C 1.374 98.758,1.152 97.483,1.092 96.750 C 0.787 93.003,0.566 91.833,0.161 91.833 C 0.058 91.833,0.000 102.972,0.000 122.667 M399.597 97.792 C 399.529 97.860,396.698 97.954,393.306 98.000 C 387.446 98.079,387.128 98.099,386.903 98.407 C 386.705 98.678,386.667 100.363,386.666 108.740 C 386.666 120.103,386.701 119.781,385.441 120.038 C 385.088 120.110,378.646 120.149,371.126 120.126 L 357.453 120.083 357.101 119.613 C 356.754 119.147,356.750 119.033,356.719 108.879 C 356.692 99.719,356.660 98.588,356.422 98.350 C 356.177 98.106,346.755 98.083,245.813 98.083 L 135.471 98.083 135.177 98.446 C 135.013 98.648,134.838 99.238,134.781 99.779 C 134.724 100.313,134.497 101.281,134.275 101.930 C 134.054 102.579,133.819 103.517,133.754 104.013 C 133.690 104.510,133.456 105.305,133.236 105.780 C 133.015 106.254,132.751 107.042,132.649 107.530 C 132.547 108.017,132.315 108.662,132.133 108.961 C 131.951 109.261,131.696 109.963,131.565 110.521 C 131.435 111.080,131.180 111.726,130.998 111.957 C 130.816 112.188,130.585 112.685,130.483 113.062 C 130.382 113.439,130.169 113.935,130.010 114.165 C 129.852 114.395,129.592 114.921,129.433 115.333 C 129.275 115.746,128.973 116.347,128.763 116.669 C 128.553 116.991,128.324 117.433,128.255 117.651 C 128.186 117.869,127.913 118.389,127.648 118.806 C 127.383 119.224,127.167 119.657,127.167 119.770 C 127.167 119.882,126.979 120.198,126.749 120.471 C 126.519 120.744,126.232 121.202,126.112 121.489 C 125.991 121.775,125.727 122.214,125.524 122.463 C 125.087 123.001,124.448 123.900,124.042 124.550 C 123.422 125.541,122.126 127.284,121.238 128.320 C 120.956 128.648,120.612 129.085,120.473 129.291 C 119.430 130.834,113.461 136.591,110.752 138.667 C 110.334 138.987,109.750 139.441,109.454 139.674 C 109.158 139.907,108.729 140.229,108.500 140.389 C 108.271 140.549,107.633 141.012,107.083 141.419 C 106.533 141.825,105.821 142.302,105.500 142.478 C 105.179 142.654,104.778 142.952,104.608 143.139 C 104.438 143.327,104.076 143.530,103.804 143.590 C 103.531 143.650,103.070 143.906,102.779 144.159 C 102.488 144.412,101.970 144.710,101.627 144.822 C 101.285 144.933,100.957 145.101,100.899 145.195 C 100.842 145.288,100.334 145.584,99.772 145.853 C 99.210 146.121,98.563 146.443,98.333 146.570 C 97.240 147.172,95.460 148.000,95.259 148.000 C 95.135 148.000,94.620 148.218,94.114 148.484 C 93.609 148.750,92.945 149.020,92.639 149.085 C 92.333 149.149,91.596 149.412,91.000 149.668 C 90.404 149.924,89.467 150.225,88.917 150.336 C 88.367 150.447,87.646 150.676,87.316 150.843 C 86.986 151.011,86.199 151.233,85.566 151.336 C 84.934 151.440,83.863 151.710,83.186 151.936 C 82.381 152.205,81.114 152.431,79.520 152.588 C 76.764 152.860,76.393 152.938,76.267 153.266 C 76.190 153.467,99.296 153.500,238.089 153.500 L 400.000 153.500 400.000 125.583 C 400.000 110.229,399.938 97.667,399.861 97.667 C 399.785 97.667,399.666 97.723,399.597 97.792 " stroke="none" fill="#ffffff" fill-rule="evenodd"></path></g></svg>